<?xml version="1.0" encoding="utf-8"?>
<!-- Generator: Adobe Illustrator 27.5.0, SVG Export Plug-In . SVG Version: 6.00 Build 0)  -->
<svg version="1.1" xmlns="http://www.w3.org/2000/svg" xmlns:xlink="http://www.w3.org/1999/xlink" x="0px" y="0px"
	 viewBox="0 0 750 500" style="enable-background:new 0 0 750 500;" xml:space="preserve">
<g id="BACKGROUND">
</g>
<g id="OBJECTS">
	<g>
		<g>
			<g>
				<rect x="346.232" y="109.301" style="fill:#E03B57;" width="328.104" height="216.163"/>
				<rect x="346.232" y="109.301" style="fill:#3A6B57;" width="328.104" height="17.443"/>
				<g>
					<circle style="fill:#7BDD3C;" cx="627.253" cy="118.023" r="3.536"/>
					<circle style="fill:#F2DB0A;" cx="640.704" cy="118.023" r="3.536"/>
					<circle style="fill:#E03B57;" cx="654.155" cy="118.023" r="3.536"/>
				</g>
			</g>
			<g>
				<g>
					<path style="fill:#FFE1E7;" d="M556.395,217.661v-12.595c0-1.24-1.005-2.246-2.246-2.246h-23.823
						c-1.24,0-2.246,1.005-2.246,2.246v12.595c0,1.24,1.005,2.246,2.246,2.246h17.936l7.743,6.229l-2.307-6.229h0.452
						C555.389,219.907,556.395,218.901,556.395,217.661z"/>
					<path style="fill:#E03B57;" d="M534.579,209.614c0.657,0,1.19,0.533,1.19,1.19s-0.533,1.19-1.19,1.19
						c-0.657,0-1.19-0.533-1.19-1.19S533.922,209.614,534.579,209.614z M541.048,210.804c0,0.657,0.533,1.19,1.19,1.19
						s1.19-0.533,1.19-1.19s-0.533-1.19-1.19-1.19S541.048,210.147,541.048,210.804z M548.707,210.804c0,0.657,0.533,1.19,1.19,1.19
						s1.19-0.533,1.19-1.19s-0.533-1.19-1.19-1.19S548.707,210.147,548.707,210.804z"/>
				</g>
				<g>
					<rect x="609.725" y="173.884" style="fill:#FFE1E7;" width="3.76" height="30.439"/>
					<rect x="621.524" y="164.832" style="fill:#FFE1E7;" width="3.76" height="39.491"/>
					<rect x="633.323" y="181.149" style="fill:#FFE1E7;" width="3.761" height="23.175"/>
					<rect x="597.925" y="181.149" style="fill:#FFE1E7;" width="3.76" height="23.175"/>
					<rect x="586.125" y="185.248" style="fill:#FFE1E7;" width="3.761" height="19.075"/>
				</g>
				<g>
					<defs>
						<circle id="SVGID_1_" cx="598.185" cy="263.051" r="46.056"/>
					</defs>
					<clipPath id="SVGID_00000167374169070746714230000011696259585579865019_">
						<use xlink:href="#SVGID_1_"  style="overflow:visible;"/>
					</clipPath>
					
						<circle style="clip-path:url(#SVGID_00000167374169070746714230000011696259585579865019_);fill:#FFE1E7;" cx="598.185" cy="263.051" r="46.056"/>
					<g style="clip-path:url(#SVGID_00000167374169070746714230000011696259585579865019_);">
						<path style="fill:#3C2659;" d="M590.057,247.847c0,0-8.186-7.743-2.962-14.631c0,0-3.328-4.655,3.359-9.564
							c7.837-5.752,17.726-2.737,20.991,1.151c1.797,2.14,1.733,5.701,1.733,5.701s2.872,1.882,3.864,6.152
							c1.213,5.219-1.061,14.841-8.939,16.08S590.057,247.847,590.057,247.847z"/>
						<polygon style="fill:#DB895A;" points="599.545,276.212 590.746,278.453 588.955,296.124 600.851,297.581 						"/>
						<polygon style="fill:#3A6B57;" points="566.324,287.768 559.669,270.42 582.738,270.42 591.696,294.796 573.779,296.783 
													"/>
						<path style="fill:#B22449;" d="M594.469,257.039L594.469,257.039c-1.625,0.765-2.977,1.954-3.938,3.406
							c-0.807,1.218-1.339,2.622-1.529,4.117l-0.047,19.819l11.896,1.802l0.955-11.655L594.469,257.039z"/>
						<path style="fill:#E03B57;" d="M606.745,255.577l2.625-1.666c0,0,9.282,0.056,13.364,5.282
							c5.948,7.615,13.248,46.456,13.248,46.456s-14.265,0-23.078,0c-8.813,0-13.21,0-13.21,0s-3.417-13.386-5.338-25.007
							c-1.442-8.719-4.718-21.278,0.984-24.156S606.745,255.577,606.745,255.577z"/>
						<path style="fill:#DB895A;" d="M609.064,293.606l3.667-0.018c0,0,4.763-1.684,7.844,0.586
							c1.903,1.402,4.864,5.089,4.864,5.089h-18.888L609.064,293.606z"/>
						<path style="fill:#B22449;" d="M602.475,279.247c0,0,8.784-18.584,12.359-21.329c3.905-2.999,9.834,0.305,8.959,6.04
							c-0.875,5.735-6.814,21.146-6.814,21.146l-4.861,1.079l-7.196-3.915L602.475,279.247z"/>
						<path style="fill:#E09868;" d="M607.785,249.013l1.586,4.898c0,0,0.347,10.047-5.467,10.047c-5.814,0-3.876-4.4-7.438-8.014
							L607.785,249.013z"/>
						<path style="fill:#F2A870;" d="M593.398,233.256c-1.13-0.11-2.187,0.28-2.975,0.982c-0.789,0.702-1.309,1.714-1.367,2.848
							c-0.277,5.388-0.252,15.788,3.727,18.958c4.564,3.637,16.49,2.674,16.713-9.137c0,0,3.788-1.783,3.788-4.68
							s-3.12-3.454-3.9-1.448c0,0-1.32-3.073-0.04-7.168C600.201,238.245,598.254,233.729,593.398,233.256z"/>
						<path style="fill:#F2A870;" d="M604.99,278.151l-7.101,14.618l-12.455,0.268c0,0-0.867-0.135-3.075-0.037
							c-1.414-3.08-4.481-9.382-5.637-8.751c-1.523,0.831-1.108,2.587,0,5.172c0,0-4.854-0.548-6.721-0.713
							c-1.866-0.165-4.913-1.827-5.19-0.581c-0.277,1.246,1.378,9.253,5.19,11.136h36.549l8.78-16.147
							C612.578,278.683,604.99,278.151,604.99,278.151z"/>
					</g>
					
						<rect x="558.97" y="299.051" style="clip-path:url(#SVGID_00000167374169070746714230000011696259585579865019_);fill:#B22449;" width="81.735" height="13.531"/>
				</g>
				<g>
					<circle style="fill:#FFE1E7;" cx="418.717" cy="189.46" r="39.2"/>
					<path style="fill:#508C75;" d="M446.436,217.179c7.094-7.094,11.481-16.894,11.481-27.719c0-6.88-1.778-13.343-4.891-18.963
						l-23.172-6.305l-3.349,9.879l-7.788,15.388L446.436,217.179z"/>
					<path style="fill:#F4B608;" d="M418.717,150.26c-21.65,0-39.2,17.551-39.2,39.2c0,10.825,4.388,20.625,11.481,27.719
						l27.719-27.719l12.055-19.657l3.3-16.419C429.357,151.374,424.167,150.26,418.717,150.26z"/>
					<path style="fill:#4FAAD3;" d="M418.717,150.26v39.2h39.2C457.918,167.81,440.367,150.26,418.717,150.26z"/>
				</g>
				<g>
					<path style="fill:#FFE1E7;" d="M477.212,162.606c0,1.23-0.997,2.227-2.227,2.227c-1.23,0-2.227-0.997-2.227-2.227
						s0.997-2.227,2.227-2.227C476.215,160.379,477.212,161.376,477.212,162.606z M510.674,162.047h-30.829v1.118h30.829V162.047z"
						/>
					<path style="fill:#FFE1E7;" d="M477.212,177.094c0,1.23-0.997,2.227-2.227,2.227c-1.23,0-2.227-0.997-2.227-2.227
						s0.997-2.227,2.227-2.227C476.215,174.867,477.212,175.864,477.212,177.094z M510.674,176.535h-30.829v1.118h30.829V176.535z"
						/>
					<path style="fill:#FFE1E7;" d="M477.212,191.583c0,1.23-0.997,2.227-2.227,2.227c-1.23,0-2.227-0.997-2.227-2.227
						s0.997-2.227,2.227-2.227C476.215,189.356,477.212,190.353,477.212,191.583z M510.674,191.024h-30.829v1.118h30.829V191.024z"
						/>
					<path style="fill:#FFE1E7;" d="M477.212,206.071c0,1.23-0.997,2.227-2.227,2.227c-1.23,0-2.227-0.997-2.227-2.227
						s0.997-2.227,2.227-2.227C476.215,203.845,477.212,204.842,477.212,206.071z M510.674,205.512h-30.829v1.118h30.829V205.512z"
						/>
				</g>
				<g>
					<rect x="473.79" y="259.789" style="fill:#E2A100;" width="58.244" height="36.993"/>
					<polygon style="fill:#F4B608;" points="473.79,259.789 502.912,278.286 532.034,259.789 					"/>
				</g>
				<g>
					<rect x="387.826" y="256.519" style="fill:#FFE1E7;" width="54.087" height="36.993"/>
					<rect x="390.724" y="259.159" style="fill:#B22449;" width="48.29" height="31.714"/>
					<path style="fill:#FFE1E7;" d="M400.534,283.514l11.643-15.118l6.073,8.768l3.75-5.276l7.204,11.625H400.534z M425.321,266.517
						c-1.441,0-2.608,1.168-2.608,2.608s1.168,2.608,2.608,2.608c1.441,0,2.608-1.168,2.608-2.608S426.762,266.517,425.321,266.517z
						"/>
				</g>
				<g>
					<rect x="533.261" y="169.399" style="fill:#FFE1E7;" width="8.969" height="8.969"/>
					<rect x="555.184" y="169.399" style="fill:#FFE1E7;" width="8.969" height="8.969"/>
				</g>
			</g>
		</g>
		<g>
			<g>
				<path style="fill:#508C75;" d="M185.08,172.481L185.08,172.481c-9.566,0-18.275,3.674-24.791,9.687
					c-7.24,6.681-11.774,16.25-11.774,26.879v55.672h73.131v-55.672c0-10.81-4.691-20.524-12.148-27.218
					C203.023,176.017,194.464,172.481,185.08,172.481z"/>
				<rect x="142.974" y="258.099" style="fill:#3A6B57;" width="104.514" height="13.239"/>
				<rect x="163.515" y="345.389" style="fill:#68597A;" width="63.431" height="7.077"/>
				<path style="fill:#68597A;" d="M200.825,363.883L200.825,363.883l0-105.783h-11.189v105.783v0
					c-3.306,4.935-7.449,9.254-12.243,12.762l-1.952,1.428v10.702h14.194h11.189h14.194v-10.702l-1.952-1.428
					C208.274,373.136,204.131,368.817,200.825,363.883z"/>
			</g>
			<g>
				<polygon style="fill:#DB895A;" points="243.011,194.837 244.758,195.972 248.99,223.798 224.999,223.798 				"/>
				<path style="fill:#B22449;" d="M234.662,162.414L234.662,162.414c2.461,1.159,4.507,2.958,5.963,5.156
					c1.222,1.844,2.028,3.97,2.315,6.234l1.818,14.32l-16.352,19.279l-4.852-18.509L234.662,162.414z"/>
				<path style="fill:#F2A870;" d="M246.186,177.003c0,0-0.279-15.992,0.376-16.756c0.655-0.764,3.657-0.273,4.039,1.91
					c0.382,2.183,0.655,5.895,0.655,5.895s8.954-4.742,13.208-6.768c6.44-3.067,13.09-4.319,13.529-2.636
					c0.471,1.803-2.872,2.809-5.07,3.837c-1.956,0.915-3.548,1.856-3.548,1.856s0.6,4.912-0.109,6.44s-1.583,4.912-4.148,6.222
					c-2.565,1.31-6.659,4.257-7.696,5.785L246.186,177.003z"/>
				<polygon style="fill:#F2A870;" points="202.733,321.83 201.371,337.366 191.745,341.799 187.141,338.156 188.396,319.842 				
					"/>
				<polygon style="fill:#F2A870;" points="234.371,319.842 229.419,336.167 224.396,340.039 215.627,335.078 220.105,319.842 				
					"/>
				<path style="fill:#C63252;" d="M212.067,337.047c0,0,0.617-6.168,2.344-6.785c1.727-0.617,1.48,0.987,4.441,4.071
					c2.961,3.084,10.115-0.863,14.186-2.59c4.071-1.727,6.785,1.11,6.538,5.304c0,0,6.414,1.974,8.758,6.044s2.287,7.92,0.74,8.882
					c-4.564,2.837-28.618,1.352-34.91-2.097C210.231,347.72,212.067,337.047,212.067,337.047z"/>
				<path style="fill:#3C2659;" d="M180.469,220.489L163.8,236.014c0,0-5.607,13.236-1.378,21.978
					c4.23,8.741,27.634,6.767,27.634,6.767l-4.512,61.471c0,0,9.305,4.23,19.174-1.128c0,0,9.305-53.011,9.869-65.418h19.509
					l-17.254,64.572c0,0,11.161,4.895,17.254,0c0,0,26.768-63.825,22.787-78.107c-3.609-12.946-38.142-10.135-38.142-10.135
					L180.469,220.489z"/>
				<path style="fill:#E03B57;" d="M216.074,160.201l-4.976-0.714c0,0-12.134-1.641-20.14,10.603
					c-8.006,12.244-27.157,65.924-27.157,65.924s21.599,0,34.942,0c13.343,0,20.001,0,20.001,0s8.948-28.877,13.971-41.278
					c5.023-12.401,9.262-28.801,0.628-33.159C224.708,157.218,216.074,160.201,216.074,160.201z"/>
				<path style="fill:#DB895A;" d="M212.563,217.779l-5.552-0.028c0,0-7.212-2.55-11.876,0.887
					c-2.881,2.123-7.364,7.706-7.364,7.706h28.598L212.563,217.779z"/>
				<path style="fill:#B22449;" d="M221.349,194.744c0,0-8.168-26.806-14.603-29.077c-6.436-2.271-15.265,1.868-13.94,10.552
					c1.325,8.684,8.072,28.531,8.072,28.531l6.133,1.791l12.373-6.318L221.349,194.744z"/>
				<path style="fill:#F2A870;" d="M202.808,203.353l11.017,22.991h17.814l23.263-40.901l-10.524-4.672l-19.785,29.534
					l-5.205-14.396C219.388,195.909,208.015,195.022,202.808,203.353z"/>
				<path style="fill:#E09868;" d="M214.5,150.263l-3.402,9.225c0,0,0.476,13.403,9.279,13.403c8.803,0,5.869-6.662,11.262-12.134
					L214.5,150.263z"/>
				<path style="fill:#3C2659;" d="M242.485,127.202c0,0,7.639-4.499,3.193-15.515s-27.361-10.725-35.174-2.126
					c-5.517,6.072-4.33,13.142-4.33,13.142s-4.638,2.65-4.638,9.149c0,7.723,6.63,13.849,4.514,18.101c0,0,6.774,3.285,11.799-2.706
					C222.873,141.257,242.485,127.202,242.485,127.202z"/>
				<path style="fill:#F2A870;" d="M242.485,127.202c0,0,2.985,27.128-5.269,33.706c-6.911,5.507-24.968,4.049-25.305-13.834
					c0,0-5.736-2.699-5.736-7.085s4.724-5.23,5.905-2.193c0,0,1.998-4.652,0.06-10.853
					C220.966,121.629,230.987,131.723,242.485,127.202z"/>
				<path style="fill:#E03B57;" d="M186.752,331.912c0,0,2.939,7.251,7.447,4.507c4.507-2.743,5.291-3.527,8.622-4.507
					c3.331-0.98,6.46-1.035,7.752,1.601c1.151,2.347,0.674,4.866,0.674,4.866s5.879,3.135,7.447,8.034s0.784,9.406-1.176,9.994
					s-11.379,2.848-20.772-0.98c-4.711-1.92-15.859-9.912-16.752-11.96c-1.26-2.891,0.502-13.324,3.308-14.103
					C185.611,328.724,186.752,331.912,186.752,331.912z"/>
				<polygon style="fill:#3C2659;" points="243.011,181.482 254.902,188.124 258.044,182.861 245.637,176.219 				"/>
				<circle style="fill:#3C2659;" cx="250.527" cy="182.171" r="4.346"/>
				<circle style="fill:#FFFFFF;" cx="250.527" cy="182.171" r="2.788"/>
			</g>
			<g>
				<polygon style="fill:#1E88AD;" points="264.751,180.771 250.538,220.852 211.916,220.852 211.916,226.344 248.59,226.344 
					254.899,226.344 313.31,226.344 329.472,180.771 				"/>
				<polygon style="fill:#4FAAD3;" points="336.008,180.771 271.288,180.771 255.126,226.344 319.846,226.344 				"/>
				
					<ellipse transform="matrix(0.3359 -0.9419 0.9419 0.3359 5.9103 417.8825)" style="opacity:0.17;fill:#FFFFFF;" cx="299.293" cy="204.75" rx="9.474" ry="6.138"/>
			</g>
			<g>
				<rect x="142.974" y="232.091" style="fill:#68597A;" width="7.215" height="156.684"/>
				<rect x="314.19" y="232.091" style="fill:#68597A;" width="7.215" height="156.684"/>
				<rect x="132.382" y="382.044" style="fill:#68597A;" width="28.399" height="6.731"/>
				<rect x="303.598" y="382.044" style="fill:#68597A;" width="28.399" height="6.731"/>
				<rect x="138.164" y="236.014" style="fill:#BA7F3E;" width="16.835" height="64.114"/>
				<rect x="309.38" y="236.014" style="fill:#BA7F3E;" width="16.835" height="64.114"/>
				<rect x="128.37" y="226.344" style="fill:#CC924C;" width="207.638" height="11.494"/>
			</g>
			<g>
				<g>
					<path style="fill:#F4B608;" d="M193.892,146.4l-13.088-10.529h-27.189c-2.165,0-3.926-1.761-3.926-3.926v-19.217
						c0-2.165,1.761-3.926,3.926-3.926h36.348c2.165,0,3.926,1.761,3.926,3.926v19.217c0,2.155-1.746,3.911-3.897,3.926
						L193.892,146.4z M153.615,109.801c-1.614,0-2.926,1.313-2.926,2.926v19.217c0,1.614,1.313,2.926,2.926,2.926h27.542
						l10.539,8.479l-3.14-8.479h1.408c1.614,0,2.926-1.313,2.926-2.926v-19.217c0-1.614-1.313-2.926-2.926-2.926H153.615z"/>
				</g>
				<g>
					<path style="fill:#F4B608;" d="M160.104,119.667c1.002,0,1.815,0.813,1.815,1.815s-0.813,1.815-1.815,1.815
						c-1.002,0-1.815-0.813-1.815-1.815S159.101,119.667,160.104,119.667z M169.974,121.482c0,1.002,0.813,1.815,1.815,1.815
						c1.002,0,1.815-0.813,1.815-1.815s-0.813-1.815-1.815-1.815C170.787,119.667,169.974,120.479,169.974,121.482z M181.66,121.482
						c0,1.002,0.813,1.815,1.815,1.815c1.002,0,1.815-0.813,1.815-1.815s-0.813-1.815-1.815-1.815
						C182.472,119.667,181.66,120.479,181.66,121.482z"/>
				</g>
			</g>
		</g>
		<rect x="75.664" y="388.775" style="fill:#AFBCDD;" width="598.672" height="7.973"/>
		<g>
			<polygon style="fill:#F4B608;" points="602.685,353.466 290.354,353.466 290.354,226.136 292.354,226.136 292.354,351.466 
				600.685,351.466 600.685,325.464 602.685,325.464 			"/>
		</g>
	</g>
</g>
</svg>
