<?xml version="1.0" encoding="utf-8"?>
<!-- Generator: Adobe Illustrator 27.5.0, SVG Export Plug-In . SVG Version: 6.00 Build 0)  -->
<svg version="1.1" xmlns="http://www.w3.org/2000/svg" xmlns:xlink="http://www.w3.org/1999/xlink" x="0px" y="0px"
	 viewBox="0 0 500 500" style="enable-background:new 0 0 500 500;" xml:space="preserve">
<g id="Background_Simple">
	<g>
		<path style="fill:#92E3A9;" d="M448.78,113.529c-3.284-5.279-6.914-10.403-10.934-15.348
			c-32.358-39.794-74.664-56.627-122.999-67.909c-49.92-11.653-108.368-15.319-156.292,5.748
			c-11.281,4.959-21.976,11.601-30.488,20.599C96.007,90.51,85.015,147.303,49.29,192.187s-53.128,100.76-21.068,153.888
			c13.568,22.484,30.867,41.033,51.337,57.306c25.204,20.037,46.943,47.063,76.069,62.706c30.613,16.441,71.383,22.169,105.26,14.64
			c38.651-8.59,61.321-42.743,90.826-66.037c23.26-18.363,51.084-30.382,73.877-49.322c34.92-29.017,61.394-75.658,56.968-121.886
			C478.266,198.638,472.706,151.986,448.78,113.529z"/>
		<path style="opacity:0.7;fill:#FFFFFF;" d="M448.78,113.529c-3.284-5.279-6.914-10.403-10.934-15.348
			c-32.358-39.794-74.664-56.627-122.999-67.909c-49.92-11.653-108.368-15.319-156.292,5.748
			c-11.281,4.959-21.976,11.601-30.488,20.599C96.007,90.51,85.015,147.303,49.29,192.187s-53.128,100.76-21.068,153.888
			c13.568,22.484,30.867,41.033,51.337,57.306c25.204,20.037,46.943,47.063,76.069,62.706c30.613,16.441,71.383,22.169,105.26,14.64
			c38.651-8.59,61.321-42.743,90.826-66.037c23.26-18.363,51.084-30.382,73.877-49.322c34.92-29.017,61.394-75.658,56.968-121.886
			C478.266,198.638,472.706,151.986,448.78,113.529z"/>
	</g>
</g>
<g id="Window">
	<g>
		<path style="opacity:0.2;" d="M454.748,31.097c-2.03,0-3.734,1.319-4.352,3.14h-225.51c-0.618-1.821-2.322-3.14-4.352-3.14
			c-2.549,0-4.615,2.066-4.615,4.615c0,2.549,2.066,4.615,4.615,4.615c2.03,0,3.734-1.319,4.352-3.139h225.51
			c0.618,1.821,2.322,3.139,4.352,3.139c2.549,0,4.615-2.066,4.615-4.615C459.363,33.164,457.297,31.097,454.748,31.097z"/>
		<g style="opacity:0.2;">
			<path style="fill:none;stroke:#000000;stroke-linejoin:round;stroke-miterlimit:10;" d="M278.222,38.02
				c3.215,78.182,6.026,157.111,9.39,235.009l-0.333,15.267c0,0-14.453,0-22.06,0.761c-7.607,0.761-19.398,0.761-27.766,0.761
				c-8.368,0-12.932-3.043-12.932-3.043l0.544-13.769c1.688-77.858,3.51-156.796,4.698-234.986"/>
			
				<line style="fill:none;stroke:#000000;stroke-linejoin:round;stroke-miterlimit:10;" x1="242.19" y1="260.105" x2="242.15" y2="269.31"/>
			
				<line style="fill:none;stroke:#000000;stroke-linejoin:round;stroke-miterlimit:10;" x1="242.977" y1="80.745" x2="242.226" y2="251.931"/>
			
				<line style="fill:none;stroke:#000000;stroke-linejoin:round;stroke-miterlimit:10;" x1="243.172" y1="36.288" x2="242.999" y2="75.637"/>
			
				<line style="fill:none;stroke:#000000;stroke-linejoin:round;stroke-miterlimit:10;" x1="256.137" y1="126.214" x2="254.414" y2="240.182"/>
			
				<line style="fill:none;stroke:#000000;stroke-linejoin:round;stroke-miterlimit:10;" x1="257.48" y1="37.31" x2="256.244" y2="119.084"/>
			
				<line style="fill:none;stroke:#000000;stroke-linejoin:round;stroke-miterlimit:10;" x1="268.243" y1="157.907" x2="268.722" y2="263.689"/>
			
				<line style="fill:none;stroke:#000000;stroke-linejoin:round;stroke-miterlimit:10;" x1="267.902" y1="82.792" x2="268.203" y2="149.224"/>
			
				<line style="fill:none;stroke:#000000;stroke-linejoin:round;stroke-miterlimit:10;" x1="267.7" y1="38.332" x2="267.865" y2="74.616"/>
		</g>
		<g style="opacity:0.2;">
			<path style="fill:none;stroke:#000000;stroke-linejoin:round;stroke-miterlimit:10;" d="M394.892,38.02
				c-3.092,82.777-7.027,166.391-9.989,248.732c0,0,9.843,1.489,16.178,1.489c6.335,0,7.602,0,14.57,0c6.968,0,10.769,0,17.737,0
				c6.968,0,14.957-1.545,14.957-1.545c-1.457-82.285-2.44-165.899-4.993-248.676"/>
			
				<line style="fill:none;stroke:#000000;stroke-linejoin:round;stroke-miterlimit:10;" x1="430.924" y1="260.105" x2="430.964" y2="269.31"/>
			
				<line style="fill:none;stroke:#000000;stroke-linejoin:round;stroke-miterlimit:10;" x1="430.137" y1="80.745" x2="430.888" y2="251.931"/>
			
				<line style="fill:none;stroke:#000000;stroke-linejoin:round;stroke-miterlimit:10;" x1="429.942" y1="36.288" x2="430.115" y2="75.637"/>
			
				<line style="fill:none;stroke:#000000;stroke-linejoin:round;stroke-miterlimit:10;" x1="416.977" y1="126.214" x2="418.7" y2="240.182"/>
			
				<line style="fill:none;stroke:#000000;stroke-linejoin:round;stroke-miterlimit:10;" x1="415.634" y1="37.31" x2="416.87" y2="119.084"/>
			
				<line style="fill:none;stroke:#000000;stroke-linejoin:round;stroke-miterlimit:10;" x1="404.871" y1="157.907" x2="404.391" y2="263.689"/>
			
				<line style="fill:none;stroke:#000000;stroke-linejoin:round;stroke-miterlimit:10;" x1="405.212" y1="82.792" x2="404.911" y2="149.224"/>
			
				<line style="fill:none;stroke:#000000;stroke-linejoin:round;stroke-miterlimit:10;" x1="405.413" y1="38.332" x2="405.249" y2="74.616"/>
		</g>
		<g style="opacity:0.2;">
			<polyline style="fill:none;stroke:#000000;stroke-linejoin:round;stroke-miterlimit:10;" points="279.658,60.237 302.354,60.237 
				302.354,86.716 281.171,86.716 			"/>
			
				<rect x="306.312" y="60.303" style="fill:none;stroke:#000000;stroke-linejoin:round;stroke-miterlimit:10;" width="23.722" height="26.559"/>
		</g>
		<g style="opacity:0.2;">
			<polyline style="fill:none;stroke:#000000;stroke-linejoin:round;stroke-miterlimit:10;" points="393.762,60.237 371.066,60.237 
				371.066,86.716 392.249,86.716 			"/>
			
				<rect x="343.387" y="60.303" transform="matrix(-1 -1.224647e-16 1.224647e-16 -1 710.4953 147.1637)" style="fill:none;stroke:#000000;stroke-linejoin:round;stroke-miterlimit:10;" width="23.722" height="26.559"/>
		</g>
		<polyline style="opacity:0.2;fill:none;stroke:#000000;stroke-linejoin:round;stroke-miterlimit:10;" points="283.403,180.554 
			330.639,180.554 330.639,101.173 281.327,101.173 		"/>
		<polyline style="opacity:0.2;fill:none;stroke:#000000;stroke-linejoin:round;stroke-miterlimit:10;" points="391.371,100.501 
			343.097,100.501 343.097,180.554 387.737,180.554 		"/>
		<polyline style="opacity:0.2;fill:none;stroke:#000000;stroke-linejoin:round;stroke-miterlimit:10;" points="284.961,199.391 
			330.639,199.391 330.639,279.188 288.421,279.188 		"/>
		<polyline style="opacity:0.2;fill:none;stroke:#000000;stroke-linejoin:round;stroke-miterlimit:10;" points="388.257,198.718 
			343.097,198.718 343.097,279.928 384.269,279.928 		"/>
		
			<line style="opacity:0.2;fill:none;stroke:#000000;stroke-linejoin:round;stroke-miterlimit:10;" x1="288.212" y1="284.997" x2="384.903" y2="284.997"/>
		
			<line style="opacity:0.2;fill:none;stroke:#000000;stroke-linejoin:round;stroke-miterlimit:10;" x1="279.466" y1="51.049" x2="393.707" y2="51.049"/>
		
			<line style="opacity:0.2;fill:none;stroke:#000000;stroke-linejoin:round;stroke-miterlimit:10;" x1="336.86" y1="51.596" x2="336.86" y2="283.904"/>
		
			<line style="opacity:0.2;fill:none;stroke:#000000;stroke-linejoin:round;stroke-miterlimit:10;" x1="280.916" y1="95.034" x2="392.039" y2="95.034"/>
	</g>
</g>
<g id="Couch">
	<g style="opacity:0.2;">
		<path style="fill:none;stroke:#000000;stroke-linejoin:round;stroke-miterlimit:10;" d="M354.902,385.187v-46.044v-31.16
			c0-6.134-4.964-11.098-11.098-11.098H243.235h-0.854v88.302v0.77"/>
		<path style="fill:none;stroke:#000000;stroke-linejoin:round;stroke-miterlimit:10;" d="M243.235,296.885h-0.854H139.919
			c-6.124,0-11.089,4.964-11.089,11.098v32.904v44.299"/>
		<path style="fill:none;stroke:#000000;stroke-linejoin:round;stroke-miterlimit:10;" d="M364.923,392.564v25.963H242.427v-33.341
			h115.119C361.62,385.187,364.923,388.491,364.923,392.564z"/>
		<path style="fill:none;stroke:#000000;stroke-linejoin:round;stroke-miterlimit:10;" d="M243.365,385.187h-0.13h-0.807h-0.046
			H130.89h-2.06h-2.645c-4.074,0-7.377,3.304-7.377,7.377v25.964h123.619h0.937"/>
		
			<rect x="118.809" y="418.528" style="fill:none;stroke:#000000;stroke-linejoin:round;stroke-miterlimit:10;" width="246.319" height="41.831"/>
		<path style="fill:none;stroke:#000000;stroke-linejoin:round;stroke-miterlimit:10;" d="M128.83,340.888
			c-1.355-1.41-3.266-2.292-5.373-2.292H101.15c-4.111,0-7.442,3.322-7.442,7.433v106.898c0,4.102,3.331,7.433,7.442,7.433h17.658
			h4.649"/>
		<path style="fill:none;stroke:#000000;stroke-linejoin:round;stroke-miterlimit:10;" d="M357.695,460.359h7.433h14.875
			c4.102,0,7.433-3.331,7.433-7.433V346.029c0-4.111-3.331-7.433-7.433-7.433h-22.307c-0.993,0-1.93,0.195-2.793,0.547"/>
	</g>
</g>
<g id="Device">
	<g>
		<g>
			<path style="fill:#707070;stroke:#263238;stroke-linejoin:round;stroke-miterlimit:10;" d="M248.872,147.219v-34.918h-3.159
				V67.599c0-15.218-12.337-27.555-27.555-27.555H70.148c-15.218,0-27.555,12.337-27.555,27.555v300.743
				c0,15.218,12.337,27.555,27.555,27.555h148.01c15.218,0,27.555-12.337,27.555-27.555V176.978h3.159v-20.633h-3.159v-9.126
				H248.872z"/>
			<path style="fill:#263238;stroke:#263238;stroke-linejoin:round;stroke-miterlimit:10;" d="M212.006,392.101H76.301
				c-16.854,0-30.517-13.663-30.517-30.517V74.356c0-16.854,13.663-30.517,30.517-30.517h135.705
				c16.854,0,30.517,13.663,30.517,30.517v287.228C242.523,378.438,228.86,392.101,212.006,392.101z"/>
			<path style="fill:#FFFFFF;stroke:#263238;stroke-linejoin:round;stroke-miterlimit:10;" d="M209.498,46.342h-54.64l-0.055,0.198
				c-1.616,5.823-5.341,9.603-9.464,9.603h-2.372c-4.123,0-7.847-3.779-9.464-9.603l-0.055-0.198h-54.64
				c-15.218,0-27.555,12.337-27.555,27.555V348.66c0,15.218,12.337,27.555,27.555,27.555h130.689
				c15.218,0,27.555-12.337,27.555-27.555V73.897C237.053,58.679,224.716,46.342,209.498,46.342z"/>
			<path style="fill:#92E3A9;" d="M209.498,46.342h-54.64l-0.055,0.198c-1.616,5.823-5.341,9.603-9.464,9.603h-2.372
				c-4.123,0-7.847-3.779-9.464-9.603l-0.055-0.198h-54.64c-15.218,0-27.555,12.337-27.555,27.555v3.075h185.799v-3.075
				C237.053,58.679,224.716,46.342,209.498,46.342z"/>
			<g>
				<path style="fill:#92E3A9;" d="M205.787,202c0-6.031,8.185-13.055,6.699-18.617c-1.538-5.755-12.183-7.74-15.098-12.778
					c-2.957-5.111,0.615-15.313-3.533-19.461c-4.148-4.148-14.35-0.576-19.46-3.533c-5.038-2.915-7.023-13.56-12.778-15.098
					c-5.562-1.487-12.586,6.699-18.617,6.699c-6.031,0-13.055-8.185-18.617-6.699c-5.755,1.538-7.74,12.183-12.778,15.099
					c-5.111,2.957-15.313-0.615-19.461,3.533c-4.148,4.148-0.576,14.35-3.533,19.461c-2.915,5.038-13.56,7.023-15.098,12.778
					c-1.487,5.562,6.699,12.586,6.699,18.617c0,6.031-8.185,13.055-6.699,18.617c1.538,5.755,12.183,7.74,15.098,12.778
					c2.957,5.111-0.615,15.313,3.533,19.461c4.148,4.148,14.35,0.576,19.46,3.532c5.038,2.915,7.023,13.56,12.778,15.098
					c5.562,1.487,12.586-6.699,18.617-6.699c6.031,0,13.055,8.185,18.617,6.699c5.755-1.538,7.74-12.183,12.778-15.099
					c5.111-2.957,15.313,0.615,19.461-3.533c4.148-4.148,0.576-14.35,3.533-19.461c2.915-5.038,13.56-7.023,15.098-12.778
					C213.973,215.055,205.787,208.03,205.787,202z"/>
				<g>
					<path style="fill:#FFFFFF;" d="M142.128,227.164l-27.086-28.728c-1.298-1.376-1.234-3.544,0.142-4.841
						c1.377-1.297,3.545-1.234,4.841,0.142l21.274,22.564l26.904-39.011c1.074-1.558,3.207-1.948,4.764-0.875
						c1.557,1.074,1.949,3.207,0.875,4.764L142.128,227.164z"/>
				</g>
			</g>
			<g>
				<path style="fill:none;stroke:#263238;stroke-linejoin:round;stroke-miterlimit:10;" d="M72.152,303.879l-0.823,0.831
					l-5.643,5.643l-6.474-6.474c-1.555-1.563-1.555-4.089,0-5.643c0.782-0.781,1.802-1.168,2.822-1.168
					c1.02,0,2.04,0.387,2.822,1.168l0.831,0.831l0.823-0.831c0.782-0.781,1.802-1.168,2.822-1.168c1.028,0,2.048,0.387,2.822,1.168
					C73.715,299.791,73.715,302.316,72.152,303.879z"/>
				<g>
					<g>
						
							<circle style="fill:none;stroke:#263238;stroke-linecap:round;stroke-linejoin:round;stroke-miterlimit:10;" cx="87.88" cy="303.979" r="8.248"/>
						<path style="fill:none;stroke:#263238;stroke-linecap:round;stroke-linejoin:round;stroke-miterlimit:10;" d="M83.056,305.492
							c0.559,2.077,1.987,3.885,4.823,3.885c2.92,0,4.305-1.635,4.824-3.885H83.056z"/>
						<path style="fill:#263238;" d="M85.919,302.456c0,0.941-0.278,1.705-0.62,1.705c-0.342,0-0.62-0.763-0.62-1.705
							s0.277-1.705,0.62-1.705C85.641,300.751,85.919,301.514,85.919,302.456z"/>
						<path style="fill:#263238;" d="M90.568,302.456c0,0.941-0.278,1.705-0.62,1.705c-0.342,0-0.62-0.763-0.62-1.705
							s0.278-1.705,0.62-1.705C90.291,300.751,90.568,301.514,90.568,302.456z"/>
					</g>
				</g>
			</g>
			
				<line style="fill:none;stroke:#263238;stroke-linejoin:round;stroke-miterlimit:10;" x1="59.377" y1="320.5" x2="116.5" y2="320.5"/>
			
				<line style="fill:none;stroke:#263238;stroke-linejoin:round;stroke-miterlimit:10;" x1="162.333" y1="328" x2="181.667" y2="328"/>
			
				<line style="fill:none;stroke:#263238;stroke-linejoin:round;stroke-miterlimit:10;" x1="146.333" y1="328" x2="158.333" y2="328"/>
			
				<line style="fill:none;stroke:#263238;stroke-linejoin:round;stroke-miterlimit:10;" x1="98.333" y1="328" x2="141.667" y2="328"/>
			<line style="fill:none;stroke:#263238;stroke-linejoin:round;stroke-miterlimit:10;" x1="59.377" y1="328" x2="93" y2="328"/>
			<line style="fill:none;stroke:#263238;stroke-linejoin:round;stroke-miterlimit:10;" x1="132.333" y1="336" x2="170" y2="336"/>
			<line style="fill:none;stroke:#263238;stroke-linejoin:round;stroke-miterlimit:10;" x1="99" y1="336" x2="127.667" y2="336"/>
			
				<line style="fill:none;stroke:#263238;stroke-linejoin:round;stroke-miterlimit:10;" x1="59.377" y1="336" x2="94.333" y2="336"/>
			
				<line style="fill:none;stroke:#263238;stroke-linejoin:round;stroke-miterlimit:10;" x1="219.667" y1="344" x2="224.333" y2="344"/>
			<line style="fill:none;stroke:#263238;stroke-linejoin:round;stroke-miterlimit:10;" x1="185" y1="344" x2="216.333" y2="344"/>
			<line style="fill:none;stroke:#263238;stroke-linejoin:round;stroke-miterlimit:10;" x1="123.667" y1="344" x2="177" y2="344"/>
			<line style="fill:none;stroke:#263238;stroke-linejoin:round;stroke-miterlimit:10;" x1="73" y1="344" x2="118.333" y2="344"/>
			
				<line style="fill:none;stroke:#263238;stroke-linejoin:round;stroke-miterlimit:10;" x1="59.377" y1="344" x2="67.667" y2="344"/>
			<circle style="fill:#595959;" cx="70.866" cy="102.673" r="10.962"/>
			
				<line style="fill:none;stroke:#263238;stroke-linejoin:round;stroke-miterlimit:10;" x1="87.309" y1="103.172" x2="125.179" y2="103.172"/>
			<circle style="fill:#707070;" cx="143.586" cy="47.662" r="2.587"/>
		</g>
		<g>
			<g>
				<g>
					<path style="fill:#FFFFFF;" d="M67.765,57.576c0,2.618-2.939,3.56-2.952,5.557v0.137h2.853v0.881h-3.807v-0.744
						c0-2.803,2.94-3.348,2.94-5.792c0-0.893-0.298-1.364-1.017-1.364c-0.707,0-1.017,0.508-1.017,1.277v0.769h-0.905v-0.707
						c0-1.327,0.608-2.208,1.947-2.208C67.157,55.38,67.765,56.249,67.765,57.576z"/>
					<path style="fill:#FFFFFF;" d="M72.517,57.563v0.223c0,0.893-0.359,1.526-1.054,1.786c0.731,0.273,1.054,0.93,1.054,1.798v0.67
						c0,1.327-0.62,2.195-1.96,2.195c-1.327,0-1.947-0.868-1.947-2.195v-0.596h0.905v0.657c0,0.782,0.322,1.253,1.017,1.253
						c0.707,0,1.017-0.459,1.017-1.339v-0.67c0-0.856-0.36-1.265-1.092-1.29h-0.521v-0.869h0.57c0.645-0.025,1.043-0.434,1.043-1.19
						V57.6c0-0.893-0.31-1.351-1.017-1.351c-0.695,0-1.017,0.483-1.017,1.265v0.446H68.61v-0.397c0-1.327,0.62-2.183,1.947-2.183
						C71.897,55.38,72.517,56.236,72.517,57.563z"/>
					<path style="fill:#FFFFFF;" d="M74.391,58.221v1.203h-0.93v-1.203H74.391z M74.391,62.946v1.203h-0.93v-1.203H74.391z"/>
					<path style="fill:#FFFFFF;" d="M76.351,59.002c0.273-0.472,0.707-0.719,1.29-0.719c1.116,0,1.612,0.819,1.612,2.059v1.699
						c0,1.327-0.632,2.195-1.959,2.195c-1.328,0-1.948-0.868-1.948-2.195v-0.583h0.905v0.645c0,0.782,0.323,1.253,1.017,1.253
						c0.695,0,1.017-0.471,1.017-1.253v-1.687c0-0.781-0.323-1.253-1.017-1.253c-0.533,0-0.893,0.298-0.98,0.93v0.199h-0.905
						l0.236-4.825h3.423v0.868h-2.555L76.351,59.002z"/>
					<path style="fill:#FFFFFF;" d="M84.08,57.551v0.161h-0.905v-0.223c0-0.782-0.323-1.24-1.029-1.24
						c-0.732,0-1.055,0.471-1.055,1.402v1.947c0.236-0.595,0.707-0.93,1.401-0.93c1.116,0,1.613,0.807,1.613,2.059v1.315
						c0,1.327-0.658,2.195-1.985,2.195c-1.34,0-1.997-0.868-1.997-2.195v-4.428c0-1.377,0.621-2.233,1.997-2.233
						C83.46,55.38,84.08,56.224,84.08,57.551z M81.091,60.801v1.302c0,0.782,0.323,1.253,1.029,1.253
						c0.695,0,1.029-0.471,1.029-1.253v-1.302c0-0.782-0.335-1.253-1.029-1.253C81.413,59.548,81.091,60.019,81.091,60.801z"/>
				</g>
				<g>
					<rect x="176.412" y="57.933" style="fill:#FFFFFF;" width="2.451" height="6.129"/>
					<rect x="179.681" y="56.705" style="fill:#FFFFFF;" width="2.451" height="7.357"/>
					<rect x="182.95" y="55.833" style="fill:#FFFFFF;" width="2.451" height="8.228"/>
					<rect x="186.218" y="54.317" style="fill:#FFFFFF;" width="2.451" height="9.744"/>
					<g>
						<g>
							<path style="fill:#FFFFFF;" d="M219.007,63.893h-14.709v-8.989h14.709V63.893z M205.115,63.076h13.075v-7.354h-13.075V63.076
								z"/>
						</g>
						<g>
							<rect x="206.341" y="56.611" style="fill:#FFFFFF;" width="7.763" height="5.576"/>
						</g>
						<g>
							<rect x="218.496" y="58.34" style="fill:#FFFFFF;" width="1.85" height="2.118"/>
						</g>
					</g>
					<g>
						<path style="fill:#FFFFFF;" d="M198.905,61.938c-0.095,0-0.193-0.025-0.281-0.077c-2.993-1.779-4.972-0.128-5.054-0.058
							c-0.228,0.198-0.575,0.173-0.773-0.055c-0.199-0.229-0.177-0.572,0.051-0.771c0.106-0.093,2.636-2.261,6.34-0.06
							c0.261,0.154,0.346,0.492,0.191,0.753C199.274,61.842,199.091,61.938,198.905,61.938z"/>
					</g>
					<g>
						<path style="fill:#FFFFFF;" d="M200.012,60.091c-0.096,0-0.193-0.025-0.281-0.077c-4.328-2.574-7.237-0.084-7.267-0.06
							c-0.227,0.202-0.574,0.178-0.775-0.049c-0.201-0.227-0.179-0.575,0.049-0.775c0.035-0.032,3.544-3.037,8.554-0.06
							c0.261,0.154,0.346,0.493,0.191,0.753C200.381,59.996,200.199,60.091,200.012,60.091z"/>
					</g>
					<g>
						<path style="fill:#FFFFFF;" d="M201.017,57.953c-0.095,0-0.193-0.025-0.281-0.077c-5.481-3.259-9.126-0.191-9.278-0.058
							c-0.229,0.199-0.576,0.174-0.775-0.054c-0.2-0.227-0.177-0.573,0.051-0.772c0.043-0.039,4.373-3.742,10.565-0.06
							c0.261,0.155,0.346,0.492,0.191,0.753C201.386,57.857,201.204,57.953,201.017,57.953z"/>
					</g>
					<g>
						<path style="fill:#FFFFFF;" d="M197.251,62.858c0,0.761-0.617,1.378-1.378,1.378c-0.761,0-1.378-0.617-1.378-1.378
							c0-0.761,0.617-1.378,1.378-1.378C196.634,61.48,197.251,62.097,197.251,62.858z"/>
					</g>
				</g>
			</g>
		</g>
	</g>
</g>
<g id="Plants">
	<g>
		<path style="fill:none;stroke:#263238;stroke-width:2;stroke-linecap:round;stroke-linejoin:round;stroke-miterlimit:10;" d="
			M451.555,273.478c0,0-11.951-6.64-12.837,8.41c-0.885,15.05-3.098,139.891-3.098,139.891"/>
		<path style="fill:none;stroke:#263238;stroke-width:2;stroke-linecap:round;stroke-linejoin:round;stroke-miterlimit:10;" d="
			M432.511,283.214c0,0,9.748,48.709,5.322,137.237"/>
		<g>
			<path style="fill:#92E3A9;" d="M442.088,276.507c0,0-4.572,2.929-7.173-0.423c-2.601-3.353,1.76-9.493-2.084-12.119
				c-3.844-2.626-10.479,1.381-10.479,1.381s5.11,1.501,4.945,4.29c-0.164,2.789-2.626,3.844-2.954,2.625
				c-0.328-1.219-2.765-7.361-6.914-4.807c-4.149,2.554-4.783,6.516-4.783,6.516s9.658-1.03,10.243,2.604
				c0.585,3.633-3.962-0.634-7.946-0.869c-3.985-0.235-7.618,0.35-7.361,2.765c0.258,2.415-0.376,6.376-0.376,6.376
				s3.376-3,7.759-2.741s4.219,3.048,0.234,2.813c-3.985-0.235-7.408,3.562-7.408,3.562s3.632,6.212,8.25,9.284
				c4.617,3.072,6.282,1.97,6.821-0.397c0.539-2.367-0.702-8.439,2.088-8.274c2.789,0.165-4.62,10.524-1.057,11.134
				c3.563,0.61,6.423-0.421,7.361-2.765c0.938-2.344,0.938-2.344,0.938-2.344s-1.241-6.071-0.702-8.439
				c0.54-2.367,1.195,0.07,1.828,2.907c0.632,2.836,1.03,9.658,2.249,9.33c1.219-0.328,5.111-5.297,6.025-7.242
				c0.915-1.945-5.132-7.9-5.062-9.096c0.071-1.195,4.735,1.079,5.462,2.322c0.726,1.242,1.429,2.884,1.429,2.884
				s2.907-1.828,2.838-7.431C446.191,274.75,442.088,276.507,442.088,276.507z"/>
			<path style="opacity:0.3;fill:#263238;" d="M442.088,276.507c0,0-4.572,2.929-7.173-0.423c-2.601-3.353,1.76-9.493-2.084-12.119
				c-3.844-2.626-10.479,1.381-10.479,1.381s5.11,1.501,4.945,4.29c-0.164,2.789-2.626,3.844-2.954,2.625
				c-0.328-1.219-2.765-7.361-6.914-4.807c-4.149,2.554-4.783,6.516-4.783,6.516s9.658-1.03,10.243,2.604
				c0.585,3.633-3.962-0.634-7.946-0.869c-3.985-0.235-7.618,0.35-7.361,2.765c0.258,2.415-0.376,6.376-0.376,6.376
				s3.376-3,7.759-2.741s4.219,3.048,0.234,2.813c-3.985-0.235-7.408,3.562-7.408,3.562s3.632,6.212,8.25,9.284
				c4.617,3.072,6.282,1.97,6.821-0.397c0.539-2.367-0.702-8.439,2.088-8.274c2.789,0.165-4.62,10.524-1.057,11.134
				c3.563,0.61,6.423-0.421,7.361-2.765c0.938-2.344,0.938-2.344,0.938-2.344s-1.241-6.071-0.702-8.439
				c0.54-2.367,1.195,0.07,1.828,2.907c0.632,2.836,1.03,9.658,2.249,9.33c1.219-0.328,5.111-5.297,6.025-7.242
				c0.915-1.945-5.132-7.9-5.062-9.096c0.071-1.195,4.735,1.079,5.462,2.322c0.726,1.242,1.429,2.884,1.429,2.884
				s2.907-1.828,2.838-7.431C446.191,274.75,442.088,276.507,442.088,276.507z"/>
			<path style="fill:none;stroke:#263238;stroke-linecap:round;stroke-linejoin:round;stroke-miterlimit:10;" d="M418.912,289.644
				c2.981-3.685,7.375-8.672,11.057-11.052"/>
			<path style="fill:none;stroke:#263238;stroke-linecap:round;stroke-linejoin:round;stroke-miterlimit:10;" d="M415.456,294.13
				c0,0,0.765-1.064,2.006-2.659"/>
			<path style="fill:none;stroke:#263238;stroke-linecap:round;stroke-linejoin:round;stroke-miterlimit:10;" d="M431.914,279.506
				c0,0,4.429,6.259,5.249,12.706"/>
			<path style="fill:none;stroke:#263238;stroke-linecap:round;stroke-linejoin:round;stroke-miterlimit:10;" d="M426.897,283.209
				c0,0,1.243-0.727,0.772,7.243"/>
			<path style="fill:none;stroke:#263238;stroke-linecap:round;stroke-linejoin:round;stroke-miterlimit:10;" d="M430.133,275.802
				c0,0,2.532-2.25,1.197-6.727"/>
			
				<line style="fill:none;stroke:#263238;stroke-linecap:round;stroke-linejoin:round;stroke-miterlimit:10;" x1="426.71" y1="279.599" x2="424.906" y2="276.293"/>
			<path style="fill:none;stroke:#263238;stroke-linecap:round;stroke-linejoin:round;stroke-miterlimit:10;" d="M422.912,282.974
				c0,0-5.742-4.337-9.329-4.549"/>
		</g>
		<g>
			<path style="fill:#92E3A9;" d="M458.382,264.697c0,0-0.183,6.574-5.313,6.893c-5.13,0.319-8.305-8.233-13.554-6.174
				c-5.249,2.059-5.759,11.433-5.759,11.433s4.986-4.093,7.667-2.027c2.681,2.066,2.059,5.249,0.614,4.747
				c-1.444-0.503-9.254-2.249-9.525,3.646c-0.271,5.896,3.263,9.23,3.263,9.23s5.552-10.371,9.589-8.481
				c4.037,1.89-3.335,3.534-6.286,7.364c-2.951,3.83-4.842,7.866-2.249,9.254c2.593,1.388,6.127,4.723,6.127,4.723
				s-0.702-5.425,2.544-9.637c3.247-4.212,5.927-2.146,2.976,1.683c-2.952,3.829-1.483,9.845-1.483,9.845s8.696,0.598,14.918-1.931
				c6.223-2.529,6.254-4.947,4.252-7.101c-2.002-2.154-8.927-5.049-6.861-7.73c2.066-2.681,7.388,11.799,10.427,8.647
				c3.04-3.151,3.957-6.717,2.249-9.254c-1.707-2.537-1.707-2.537-1.707-2.537s-6.925-2.896-8.928-5.05
				c-2.003-2.154,0.885-1.149,4.156,0.151c3.271,1.3,10.372,5.552,10.874,4.108c0.502-1.444-1.82-8.728-3.144-10.969
				c-1.324-2.242-11.408-0.247-12.557-1.132s4.308-4.005,6.047-3.885c1.739,0.12,3.861,0.534,3.861,0.534s0.151-4.156-5.505-7.906
				C459.419,259.391,458.382,264.697,458.382,264.697z"/>
			<path style="opacity:0.2;fill:#263238;" d="M458.382,264.697c0,0-0.183,6.574-5.313,6.893c-5.13,0.319-8.305-8.233-13.554-6.174
				c-5.249,2.059-5.759,11.433-5.759,11.433s4.986-4.093,7.667-2.027c2.681,2.066,2.059,5.249,0.614,4.747
				c-1.444-0.503-9.254-2.249-9.525,3.646c-0.271,5.896,3.263,9.23,3.263,9.23s5.552-10.371,9.589-8.481
				c4.037,1.89-3.335,3.534-6.286,7.364c-2.951,3.83-4.842,7.866-2.249,9.254c2.593,1.388,6.127,4.723,6.127,4.723
				s-0.702-5.425,2.544-9.637c3.247-4.212,5.927-2.146,2.976,1.683c-2.952,3.829-1.483,9.845-1.483,9.845s8.696,0.598,14.918-1.931
				c6.223-2.529,6.254-4.947,4.252-7.101c-2.002-2.154-8.927-5.049-6.861-7.73c2.066-2.681,7.388,11.799,10.427,8.647
				c3.04-3.151,3.957-6.717,2.249-9.254c-1.707-2.537-1.707-2.537-1.707-2.537s-6.925-2.896-8.928-5.05
				c-2.003-2.154,0.885-1.149,4.156,0.151c3.271,1.3,10.372,5.552,10.874,4.108c0.502-1.444-1.82-8.728-3.144-10.969
				c-1.324-2.242-11.408-0.247-12.557-1.132s4.308-4.005,6.047-3.885c1.739,0.12,3.861,0.534,3.861,0.534s0.151-4.156-5.505-7.906
				C459.419,259.391,458.382,264.697,458.382,264.697z"/>
			<path style="fill:none;stroke:#263238;stroke-linecap:round;stroke-linejoin:round;stroke-miterlimit:10;" d="M455.737,296.855
				c-1.658-5.497-3.656-13.295-3.529-18.604"/>
			<path style="fill:none;stroke:#263238;stroke-linecap:round;stroke-linejoin:round;stroke-miterlimit:10;" d="M457.874,303.373
				c0,0-0.544-1.492-1.295-3.821"/>
			<path style="fill:none;stroke:#263238;stroke-linecap:round;stroke-linejoin:round;stroke-miterlimit:10;" d="M454.45,276.927
				c0,0,9.286-0.168,16.299,3.406"/>
			<path style="fill:none;stroke:#263238;stroke-linecap:round;stroke-linejoin:round;stroke-miterlimit:10;" d="M454.738,284.474
				c0,0,0.12-1.739,7.779,4.164"/>
			<path style="fill:none;stroke:#263238;stroke-linecap:round;stroke-linejoin:round;stroke-miterlimit:10;" d="M449.528,276.185
				c0,0-0.527-4.069-5.92-5.784"/>
			
				<line style="fill:none;stroke:#263238;stroke-linecap:round;stroke-linejoin:round;stroke-miterlimit:10;" x1="450.996" y1="282.2" x2="446.456" y2="281.754"/>
			<path style="fill:none;stroke:#263238;stroke-linecap:round;stroke-linejoin:round;stroke-miterlimit:10;" d="M451.786,288.303
				c0,0-8.257,2.793-10.913,6.239"/>
		</g>
		<path style="fill:none;stroke:#263238;stroke-width:2;stroke-linecap:round;stroke-linejoin:round;stroke-miterlimit:10;" d="
			M403.307,308.447c0,0,26.116,44.281,25.673,111.119"/>
		<g>
			<path style="fill:#92E3A9;" d="M435.507,303.886c0,0-0.832,7.568-6.781,7.453c-5.949-0.116-8.807-10.284-15.058-8.404
				c-6.252,1.88-7.725,12.649-7.725,12.649s6.14-4.252,9.038-1.615c2.898,2.637,1.88,6.252,0.261,5.535
				c-1.619-0.716-10.467-3.469-11.336,3.309c-0.869,6.777,2.895,10.959,2.895,10.959s7.385-11.444,11.865-8.881
				c4.48,2.563-4.181,3.764-7.949,7.904c-3.767,4.14-6.33,8.62-3.469,10.466c2.861,1.846,6.625,6.028,6.625,6.028
				s-0.298-6.326,3.846-10.88c4.144-4.554,7.042-1.917,3.275,2.223c-3.767,4.14-2.641,11.22-2.641,11.22s9.978,1.511,17.397-0.821
				c7.419-2.331,7.684-5.118,5.576-7.792c-2.107-2.674-9.825-6.669-7.188-9.568c2.637-2.898,7.412,14.312,11.216,10.962
				c3.805-3.35,5.2-7.378,3.469-10.466c-1.731-3.089-1.731-3.089-1.731-3.089s-7.717-3.995-9.825-6.669
				c-2.107-2.674,1.13-1.242,4.782,0.567c3.652,1.809,11.444,7.385,12.16,5.767c0.716-1.619-1.276-10.243-2.592-12.954
				c-1.317-2.712-13.141-1.361-14.383-2.492c-1.242-1.13,5.349-4.215,7.344-3.913c1.996,0.302,4.405,0.981,4.405,0.981
				s0.567-4.782-5.606-9.642C437.204,297.862,435.507,303.886,435.507,303.886z"/>
			<path style="opacity:0.3;fill:#263238;" d="M435.507,303.886c0,0-0.832,7.568-6.781,7.453
				c-5.949-0.116-8.807-10.284-15.058-8.404c-6.252,1.88-7.725,12.649-7.725,12.649s6.14-4.252,9.038-1.615
				c2.898,2.637,1.88,6.252,0.261,5.535c-1.619-0.716-10.467-3.469-11.336,3.309c-0.869,6.777,2.895,10.959,2.895,10.959
				s7.385-11.444,11.865-8.881c4.48,2.563-4.181,3.764-7.949,7.904c-3.767,4.14-6.33,8.62-3.469,10.466
				c2.861,1.846,6.625,6.028,6.625,6.028s-0.298-6.326,3.846-10.88c4.144-4.554,7.042-1.917,3.275,2.223
				c-3.767,4.14-2.641,11.22-2.641,11.22s9.978,1.511,17.397-0.821c7.419-2.331,7.684-5.118,5.576-7.792
				c-2.107-2.674-9.825-6.669-7.188-9.568c2.637-2.898,7.412,14.312,11.216,10.962c3.805-3.35,5.2-7.378,3.469-10.466
				c-1.731-3.089-1.731-3.089-1.731-3.089s-7.717-3.995-9.825-6.669c-2.107-2.674,1.13-1.242,4.782,0.567
				c3.652,1.809,11.444,7.385,12.16,5.767c0.716-1.619-1.276-10.243-2.592-12.954c-1.317-2.712-13.141-1.361-14.383-2.492
				c-1.242-1.13,5.349-4.215,7.344-3.913c1.996,0.302,4.405,0.981,4.405,0.981s0.567-4.782-5.606-9.642
				C437.204,297.862,435.507,303.886,435.507,303.886z"/>
			<path style="fill:none;stroke:#263238;stroke-linecap:round;stroke-linejoin:round;stroke-miterlimit:10;" d="M429.42,340.744
				c-1.394-6.499-2.964-15.686-2.317-21.8"/>
			<path style="fill:none;stroke:#263238;stroke-linecap:round;stroke-linejoin:round;stroke-miterlimit:10;" d="M431.27,348.467
				c0,0-0.487-1.773-1.133-4.531"/>
			<path style="fill:none;stroke:#263238;stroke-linecap:round;stroke-linejoin:round;stroke-miterlimit:10;" d="M429.815,317.628
				c0,0,10.731,0.682,18.486,5.468"/>
			<path style="fill:none;stroke:#263238;stroke-linecap:round;stroke-linejoin:round;stroke-miterlimit:10;" d="M429.434,326.363
				c0,0,0.302-1.996,8.583,5.539"/>
			<path style="fill:none;stroke:#263238;stroke-linecap:round;stroke-linejoin:round;stroke-miterlimit:10;" d="M424.205,316.307
				c0,0-0.224-4.745-6.285-7.233"/>
			
				<line style="fill:none;stroke:#263238;stroke-linecap:round;stroke-linejoin:round;stroke-miterlimit:10;" x1="425.331" y1="323.387" x2="420.135" y2="322.443"/>
			<path style="fill:none;stroke:#263238;stroke-linecap:round;stroke-linejoin:round;stroke-miterlimit:10;" d="M425.667,330.504
				c0,0-9.791,2.443-13.182,6.169"/>
		</g>
		<g>
			<path style="fill:#92E3A9;" d="M435.507,367.164c0,0-0.832,7.568-6.781,7.453s-8.807-10.284-15.058-8.404
				c-6.252,1.88-7.725,12.649-7.725,12.649s6.14-4.252,9.038-1.615c2.898,2.637,1.88,6.251,0.261,5.535
				c-1.619-0.716-10.467-3.469-11.336,3.309c-0.869,6.777,2.895,10.959,2.895,10.959s7.385-11.444,11.865-8.881
				c4.48,2.563-4.181,3.764-7.949,7.904c-3.767,4.14-6.33,8.62-3.469,10.466c2.861,1.846,6.625,6.028,6.625,6.028
				s-0.298-6.326,3.846-10.88c4.144-4.555,7.042-1.917,3.275,2.223c-3.767,4.14-2.641,11.22-2.641,11.22s9.978,1.511,17.397-0.821
				c7.419-2.331,7.684-5.118,5.576-7.792c-2.107-2.674-9.825-6.669-7.188-9.568c2.637-2.898,7.412,14.312,11.216,10.963
				c3.805-3.35,5.2-7.378,3.469-10.466c-1.731-3.089-1.731-3.089-1.731-3.089s-7.717-3.995-9.825-6.669
				c-2.107-2.674,1.13-1.242,4.782,0.567c3.652,1.809,11.444,7.385,12.16,5.767c0.716-1.619-1.276-10.243-2.592-12.954
				c-1.317-2.712-13.141-1.361-14.383-2.492c-1.242-1.13,5.349-4.215,7.344-3.913c1.996,0.302,4.405,0.981,4.405,0.981
				s0.567-4.782-5.606-9.642C437.204,361.14,435.507,367.164,435.507,367.164z"/>
			<path style="opacity:0.3;fill:#263238;" d="M435.507,367.164c0,0-0.832,7.568-6.781,7.453s-8.807-10.284-15.058-8.404
				c-6.252,1.88-7.725,12.649-7.725,12.649s6.14-4.252,9.038-1.615c2.898,2.637,1.88,6.251,0.261,5.535
				c-1.619-0.716-10.467-3.469-11.336,3.309c-0.869,6.777,2.895,10.959,2.895,10.959s7.385-11.444,11.865-8.881
				c4.48,2.563-4.181,3.764-7.949,7.904c-3.767,4.14-6.33,8.62-3.469,10.466c2.861,1.846,6.625,6.028,6.625,6.028
				s-0.298-6.326,3.846-10.88c4.144-4.555,7.042-1.917,3.275,2.223c-3.767,4.14-2.641,11.22-2.641,11.22s9.978,1.511,17.397-0.821
				c7.419-2.331,7.684-5.118,5.576-7.792c-2.107-2.674-9.825-6.669-7.188-9.568c2.637-2.898,7.412,14.312,11.216,10.963
				c3.805-3.35,5.2-7.378,3.469-10.466c-1.731-3.089-1.731-3.089-1.731-3.089s-7.717-3.995-9.825-6.669
				c-2.107-2.674,1.13-1.242,4.782,0.567c3.652,1.809,11.444,7.385,12.16,5.767c0.716-1.619-1.276-10.243-2.592-12.954
				c-1.317-2.712-13.141-1.361-14.383-2.492c-1.242-1.13,5.349-4.215,7.344-3.913c1.996,0.302,4.405,0.981,4.405,0.981
				s0.567-4.782-5.606-9.642C437.204,361.14,435.507,367.164,435.507,367.164z"/>
			<path style="fill:none;stroke:#263238;stroke-linecap:round;stroke-linejoin:round;stroke-miterlimit:10;" d="M429.42,404.022
				c-1.394-6.499-2.964-15.686-2.317-21.8"/>
			<path style="fill:none;stroke:#263238;stroke-linecap:round;stroke-linejoin:round;stroke-miterlimit:10;" d="M431.27,411.745
				c0,0-0.487-1.773-1.133-4.531"/>
			<path style="fill:none;stroke:#263238;stroke-linecap:round;stroke-linejoin:round;stroke-miterlimit:10;" d="M429.815,380.905
				c0,0,10.731,0.683,18.486,5.468"/>
			<path style="fill:none;stroke:#263238;stroke-linecap:round;stroke-linejoin:round;stroke-miterlimit:10;" d="M429.434,389.641
				c0,0,0.302-1.996,8.583,5.539"/>
			<path style="fill:none;stroke:#263238;stroke-linecap:round;stroke-linejoin:round;stroke-miterlimit:10;" d="M424.205,379.585
				c0,0-0.224-4.745-6.285-7.233"/>
			
				<line style="fill:none;stroke:#263238;stroke-linecap:round;stroke-linejoin:round;stroke-miterlimit:10;" x1="425.331" y1="386.665" x2="420.135" y2="385.721"/>
			<path style="fill:none;stroke:#263238;stroke-linecap:round;stroke-linejoin:round;stroke-miterlimit:10;" d="M425.667,393.781
				c0,0-9.791,2.443-13.182,6.169"/>
		</g>
		<path style="fill:none;stroke:#263238;stroke-width:2;stroke-linecap:round;stroke-linejoin:round;stroke-miterlimit:10;" d="
			M413.488,361.121c0,0,16.82,39.854,18.591,58.888l-3.541-90.758"/>
		<path style="fill:none;stroke:#263238;stroke-width:2;stroke-linecap:round;stroke-linejoin:round;stroke-miterlimit:10;" d="
			M454.211,351.825c-22.132-3.984-22.132,68.184-22.132,68.184"/>
		<path style="fill:none;stroke:#263238;stroke-width:2;stroke-linecap:round;stroke-linejoin:round;stroke-miterlimit:10;" d="
			M434.734,419.566c0,0-12.836-120.415,24.345-120.415"/>
		<g>
			<path style="fill:#92E3A9;" d="M445.777,349.14c-3.023-3.401-9.447-3.401-13.226,5.29c-3.779,8.692-0.378,7.18-0.378,7.18
				s7.18-2.267,11.715-3.779c4.535-1.512,10.581-5.29,10.959-3.023c0.378,2.267-3.023,4.535-7.18,5.29
				c-4.157,0.756-15.116,3.779-13.982,6.046c1.134,2.267,3.779,9.07,3.779,9.07s5.29-4.535,10.203-7.558
				c4.912-3.023,7.936-1.889,5.29,1.512c-2.645,3.401-10.203,7.18-8.692,11.715c1.512,4.535,10.581,10.203,10.581,10.203
				s1.134-9.447,3.779-12.47c2.645-3.023,2.645,0.378,1.889,5.668c-0.756,5.291-0.756,6.802-0.756,6.802l10.581,3.779
				c0,0,3.779-5.668,5.668-7.558c1.889-1.889,1.889-1.889,1.889-1.889s-8.314-7.18-8.692-11.715c-0.378-4.535,5.668,0,7.558,0.756
				c1.889,0.756,4.913,6.046,4.913,6.046s1.889-8.691,2.267-11.715s0.378-3.023,0.378-3.023s-7.936-3.023-10.959-3.023
				c-3.023,0-4.535,2.267-4.535-0.756c0-3.023,3.023-4.913,6.424-4.535c3.401,0.378,9.069,2.267,9.069,2.267
				s2.267-1.889,1.512-7.558c-0.756-5.668-2.645-5.668-7.18-4.157c-4.535,1.512-7.558,4.913-10.959,4.913s-1.512-4.157,0.756-5.29
				s7.936-3.401,9.069-3.779c1.134-0.378-6.046-5.668-9.825-6.424c-3.779-0.756-8.672,1.906-8.314,5.668
				C460.137,351.03,448.8,352.541,445.777,349.14z"/>
			<path style="fill:none;stroke:#263238;stroke-linecap:round;stroke-linejoin:round;stroke-miterlimit:10;" d="M470.103,388.049
				c0.113,1.138,0.193,2.278,0.237,3.415"/>
			<path style="fill:none;stroke:#263238;stroke-linecap:round;stroke-linejoin:round;stroke-miterlimit:10;" d="M462.512,360.921
				c2.654,6.133,5.723,14.59,7.113,23.416"/>
			<path style="fill:none;stroke:#263238;stroke-linecap:round;stroke-linejoin:round;stroke-miterlimit:10;" d="M461.151,357.888
				c-1.872-4.026-3.281-6.48-3.281-6.48s3.401-1.512,4.913-4.535c1.512-3.023,3.779-4.535,3.779-4.535"/>
			<path style="fill:none;stroke:#263238;stroke-linecap:round;stroke-linejoin:round;stroke-miterlimit:10;" d="M444.644,364.256
				c0,0,13.604-5.668,13.604-4.535"/>
			<path style="fill:none;stroke:#263238;stroke-linecap:round;stroke-linejoin:round;stroke-miterlimit:10;" d="M465.806,357.076
				c0,0,6.046-3.023,11.337-3.023"/>
			<path style="fill:none;stroke:#263238;stroke-linecap:round;stroke-linejoin:round;stroke-miterlimit:10;" d="M463.538,366.145
				c0,0-3.401,2.645-7.18,7.18c-3.779,4.535-5.29,8.692-5.29,8.692"/>
			<path style="fill:none;stroke:#263238;stroke-linecap:round;stroke-linejoin:round;stroke-miterlimit:10;" d="M467.695,367.657
				c0,0,7.936-2.267,12.093,1.512"/>
		</g>
		<g>
			<path style="fill:#92E3A9;" d="M482.07,316.596c-4.114-2.433-8.664-2.487-10.894-5.055c-2.23-2.568,2.148-3.867,4.491-2.898
				c2.343,0.969,7.771,3.763,8.799,4.371c1.028,0.608,0.317-8.282-1.59-11.631c-1.907-3.349-7.125-5.299-9.731-2.562
				c-5.497,5.773-14.07-1.797-13.484-6.309c0.586-4.513-3.625-9.364-12.666-6.519c-9.041,2.844-5.67,4.422-5.67,4.422
				s6.419,3.935,10.533,6.369c4.114,2.433,10.932,4.522,9.467,6.294c-1.464,1.772-5.406,0.69-8.702-1.954
				c-3.296-2.644-12.763-8.937-13.732-6.595c-0.969,2.342-4.371,8.799-4.371,8.799s6.893,1.022,12.396,2.75
				c5.503,1.728,6.629,4.754,2.327,4.986c-4.302,0.232-12.111-2.998-14.544,1.116c-2.433,4.114-0.768,14.679-0.768,14.679
				s7.877-5.337,11.894-5.322c4.017,0.016,1.449,2.245-3.042,5.143c-4.491,2.898-5.632,3.889-5.632,3.889l4.083,10.467
				c0,0,6.758-0.862,9.423-0.674c2.665,0.188,2.665,0.188,2.665,0.188s-0.028-10.985,3.148-14.243
				c3.177-3.258,3.716,4.28,4.384,6.203c0.668,1.922-1.345,7.673-1.345,7.673s7.802-4.271,10.333-5.968
				c2.531-1.697,2.531-1.697,2.531-1.697s-2.92-7.974-4.901-10.257c-1.982-2.283-4.685-1.938-2.402-3.92
				c2.283-1.982,5.691-0.938,7.636,1.878c1.944,2.816,4.233,8.335,4.233,8.335s2.913,0.474,6.698-3.813
				C487.423,320.456,486.184,319.029,482.07,316.596z M446.307,328.692c-3.023-1.512,4.157-4.535,4.157-4.535
				C453.109,323.779,449.33,330.203,446.307,328.692z M451.398,314.584c-1.289-0.644,2.578-1.933,2.578-1.933
				C459.56,313.725,452.687,315.228,451.398,314.584z"/>
			<path style="fill:none;stroke:#263238;stroke-linecap:round;stroke-linejoin:round;stroke-miterlimit:10;" d="M446.227,336.39
				c-0.786,0.831-1.593,1.639-2.424,2.418"/>
			<path style="fill:none;stroke:#263238;stroke-linecap:round;stroke-linejoin:round;stroke-miterlimit:10;" d="M461.735,312.873
				c-2.892,6.025-7.266,13.887-13.019,20.722"/>
			<path style="fill:none;stroke:#263238;stroke-linecap:round;stroke-linejoin:round;stroke-miterlimit:10;" d="M463.134,309.857
				c1.813-4.053,2.742-6.726,2.742-6.726s3.371,1.577,6.645,0.737c3.274-0.84,5.902-0.119,5.902-0.119"/>
			<path style="fill:none;stroke:#263238;stroke-linecap:round;stroke-linejoin:round;stroke-miterlimit:10;" d="M447.503,301.566
				c0,0,13.199,6.557,12.343,7.3"/>
			<path style="fill:none;stroke:#263238;stroke-linecap:round;stroke-linejoin:round;stroke-miterlimit:10;" d="M466.798,312.839
				c0,0,6.247,2.584,9.715,6.579"/>
			<path style="fill:none;stroke:#263238;stroke-linecap:round;stroke-linejoin:round;stroke-miterlimit:10;" d="M458.463,317.073
				c0,0-4.227-0.834-10.129-0.715c-5.902,0.119-10.032,1.703-10.032,1.703"/>
			<path style="fill:none;stroke:#263238;stroke-linecap:round;stroke-linejoin:round;stroke-miterlimit:10;" d="M460.047,321.203
				c0,0,6.915,4.506,6.786,10.122"/>
		</g>
		<g>
			<path style="fill:#92E3A9;" d="M423.349,368.958c-3.311-1.958-6.973-2.001-8.767-4.068c-1.794-2.067,1.729-3.111,3.614-2.332
				c1.885,0.78,6.253,3.028,7.081,3.518c0.828,0.49,0.255-6.665-1.28-9.36c-1.534-2.695-5.734-4.264-7.831-2.062
				c-4.424,4.646-11.323-1.446-10.851-5.077c0.472-3.632-2.917-7.535-10.193-5.246c-7.275,2.289-4.563,3.558-4.563,3.558
				s5.166,3.167,8.477,5.125c3.311,1.958,8.797,3.639,7.619,5.065c-1.178,1.426-4.351,0.555-7.003-1.572
				c-2.652-2.128-10.271-7.192-11.051-5.307c-0.78,1.885-3.518,7.081-3.518,7.081s5.547,0.823,9.976,2.213
				c4.429,1.391,5.335,3.826,1.872,4.013c-3.462,0.187-9.746-2.413-11.704,0.898c-1.958,3.311-0.618,11.813-0.618,11.813
				s6.339-4.295,9.572-4.283c3.232,0.012,1.166,1.807-2.448,4.139c-3.614,2.332-4.532,3.129-4.532,3.129l3.286,8.424
				c0,0,5.438-0.694,7.583-0.542c2.145,0.151,2.145,0.151,2.145,0.151s-0.023-8.84,2.533-11.462c2.556-2.622,2.99,3.445,3.528,4.992
				c0.538,1.547-1.083,6.175-1.083,6.175s6.279-3.437,8.315-4.802c2.037-1.365,2.037-1.365,2.037-1.365s-2.35-6.418-3.944-8.255
				c-1.595-1.837-3.77-1.56-1.933-3.154c1.837-1.595,4.58-0.755,6.145,1.512c1.565,2.266,3.407,6.708,3.407,6.708
				s2.344,0.381,5.39-3.069C427.657,372.065,426.66,370.916,423.349,368.958z M394.569,378.692
				c-2.433-1.216,3.345-3.649,3.345-3.649C400.043,374.739,397.002,379.909,394.569,378.692z M398.666,367.339
				c-1.037-0.519,2.074-1.556,2.074-1.556C405.234,366.647,399.703,367.857,398.666,367.339z"/>
			<path style="fill:none;stroke:#263238;stroke-linecap:round;stroke-linejoin:round;stroke-miterlimit:10;" d="M394.505,384.887
				c-0.632,0.669-1.282,1.319-1.95,1.946"/>
			<path style="fill:none;stroke:#263238;stroke-linecap:round;stroke-linejoin:round;stroke-miterlimit:10;" d="M406.985,365.962
				c-2.327,4.848-5.847,11.175-10.477,16.676"/>
			<path style="fill:none;stroke:#263238;stroke-linecap:round;stroke-linejoin:round;stroke-miterlimit:10;" d="M408.111,363.534
				c1.459-3.262,2.207-5.413,2.207-5.413s2.713,1.269,5.347,0.593c2.635-0.676,4.749-0.096,4.749-0.096"/>
			<path style="fill:none;stroke:#263238;stroke-linecap:round;stroke-linejoin:round;stroke-miterlimit:10;" d="M395.532,356.863
				c0,0,10.622,5.277,9.933,5.875"/>
			<path style="fill:none;stroke:#263238;stroke-linecap:round;stroke-linejoin:round;stroke-miterlimit:10;" d="M411.059,365.935
				c0,0,5.027,2.079,7.818,5.294"/>
			<path style="fill:none;stroke:#263238;stroke-linecap:round;stroke-linejoin:round;stroke-miterlimit:10;" d="M404.352,369.342
				c0,0-3.402-0.671-8.151-0.575c-4.749,0.096-8.073,1.37-8.073,1.37"/>
			<path style="fill:none;stroke:#263238;stroke-linecap:round;stroke-linejoin:round;stroke-miterlimit:10;" d="M405.626,372.665
				c0,0,5.564,3.626,5.461,8.146"/>
		</g>
		<g>
			<path style="fill:#92E3A9;" d="M409.849,306.556c0,0-4.157,3.023-6.802,0c-2.645-3.023,1.134-9.069-2.645-11.337
				c-3.779-2.267-9.825,1.889-9.825,1.889s4.913,1.134,4.913,3.779c0,2.645-2.267,3.779-2.645,2.645
				c-0.378-1.134-3.023-6.802-6.802-4.157c-3.779,2.645-4.157,6.424-4.157,6.424s9.069-1.512,9.825,1.889
				c0.756,3.401-3.779-0.378-7.558-0.378s-7.18,0.756-6.802,3.023c0.378,2.267,0,6.046,0,6.046s3.023-3.023,7.18-3.023
				c4.157,0,4.157,2.645,0.378,2.645c-3.779,0-6.802,3.779-6.802,3.779s3.779,5.668,8.314,8.314
				c4.535,2.645,6.046,1.512,6.424-0.756c0.378-2.267-1.134-7.936,1.512-7.936c2.645,0-3.779,10.203-0.378,10.581
				c3.401,0.378,6.046-0.756,6.802-3.023c0.756-2.267,0.756-2.267,0.756-2.267s-1.512-5.668-1.134-7.936
				c0.378-2.267,1.134,0,1.889,2.645c0.756,2.645,1.512,9.069,2.645,8.691c1.134-0.378,4.535-5.29,5.29-7.18
				c0.756-1.889-5.29-7.18-5.29-8.314s4.535,0.756,5.29,1.889s1.512,2.645,1.512,2.645s2.645-1.889,2.267-7.18
				C413.628,304.667,409.849,306.556,409.849,306.556z"/>
			<path style="fill:none;stroke:#263238;stroke-linecap:round;stroke-linejoin:round;stroke-miterlimit:10;" d="M388.68,320.262
				c2.612-3.649,6.486-8.607,9.833-11.061"/>
			<path style="fill:none;stroke:#263238;stroke-linecap:round;stroke-linejoin:round;stroke-miterlimit:10;" d="M385.664,324.695
				c0,0,0.664-1.049,1.748-2.625"/>
			<path style="fill:none;stroke:#263238;stroke-linecap:round;stroke-linejoin:round;stroke-miterlimit:10;" d="M400.402,309.957
				c0,0,4.535,5.668,5.668,11.715"/>
			<path style="fill:none;stroke:#263238;stroke-linecap:round;stroke-linejoin:round;stroke-miterlimit:10;" d="M395.867,313.736
				c0,0,1.134-0.756,1.134,6.802"/>
			<path style="fill:none;stroke:#263238;stroke-linecap:round;stroke-linejoin:round;stroke-miterlimit:10;" d="M398.512,306.556
				c0,0,2.267-2.267,0.756-6.424"/>
			
				<line style="fill:none;stroke:#263238;stroke-linecap:round;stroke-linejoin:round;stroke-miterlimit:10;" x1="395.489" y1="310.335" x2="393.599" y2="307.312"/>
			<path style="fill:none;stroke:#263238;stroke-linecap:round;stroke-linejoin:round;stroke-miterlimit:10;" d="M392.088,313.736
				c0,0-5.668-3.779-9.069-3.779"/>
		</g>
		<g>
			<path style="fill:#92E3A9;" d="M446.676,386.867c0,0-4.157,3.023-6.802,0c-2.645-3.023,1.134-9.069-2.645-11.337
				c-3.779-2.268-9.825,1.889-9.825,1.889s4.913,1.133,4.913,3.779c0,2.645-2.267,3.779-2.645,2.645
				c-0.378-1.134-3.023-6.802-6.802-4.157c-3.779,2.645-4.157,6.424-4.157,6.424s9.069-1.512,9.825,1.889
				c0.756,3.401-3.779-0.378-7.558-0.378c-3.779,0-7.18,0.756-6.802,3.023c0.378,2.267,0,6.046,0,6.046s3.023-3.023,7.18-3.023
				s4.157,2.645,0.378,2.645c-3.779,0-6.802,3.779-6.802,3.779s3.779,5.668,8.314,8.314c4.535,2.645,6.046,1.512,6.424-0.756
				c0.378-2.267-1.134-7.936,1.512-7.936c2.645,0-3.779,10.203-0.378,10.581c3.401,0.378,6.046-0.756,6.802-3.023
				c0.756-2.267,0.756-2.267,0.756-2.267s-1.512-5.668-1.134-7.936c0.378-2.267,1.134,0,1.889,2.645s1.512,9.069,2.645,8.691
				c1.134-0.378,4.535-5.29,5.29-7.18c0.756-1.889-5.29-7.18-5.29-8.314c0-1.134,4.535,0.756,5.29,1.889
				c0.756,1.134,1.512,2.645,1.512,2.645s2.645-1.889,2.267-7.18C450.455,384.978,446.676,386.867,446.676,386.867z"/>
			<path style="fill:none;stroke:#263238;stroke-linecap:round;stroke-linejoin:round;stroke-miterlimit:10;" d="M425.507,400.574
				c2.612-3.649,6.486-8.607,9.833-11.061"/>
			<path style="fill:none;stroke:#263238;stroke-linecap:round;stroke-linejoin:round;stroke-miterlimit:10;" d="M422.491,405.006
				c0,0,0.664-1.049,1.748-2.625"/>
			<path style="fill:none;stroke:#263238;stroke-linecap:round;stroke-linejoin:round;stroke-miterlimit:10;" d="M437.229,390.268
				c0,0,4.535,5.668,5.668,11.715"/>
			<path style="fill:none;stroke:#263238;stroke-linecap:round;stroke-linejoin:round;stroke-miterlimit:10;" d="M432.694,394.047
				c0,0,1.134-0.756,1.134,6.802"/>
			<path style="fill:none;stroke:#263238;stroke-linecap:round;stroke-linejoin:round;stroke-miterlimit:10;" d="M435.339,386.867
				c0,0,2.267-2.267,0.756-6.424"/>
			
				<line style="fill:none;stroke:#263238;stroke-linecap:round;stroke-linejoin:round;stroke-miterlimit:10;" x1="432.316" y1="390.646" x2="430.427" y2="387.623"/>
			<path style="fill:none;stroke:#263238;stroke-linecap:round;stroke-linejoin:round;stroke-miterlimit:10;" d="M428.915,394.047
				c0,0-5.668-3.779-9.069-3.779"/>
		</g>
		<rect x="418.8" y="418.308" style="fill:#263238;" width="29.214" height="42.051"/>
	</g>
</g>
<g id="Floor">
	<g>
		
			<line style="fill:none;stroke:#263238;stroke-linejoin:round;stroke-miterlimit:10;" x1="85" y1="460.359" x2="26.101" y2="460.359"/>
		
			<line style="fill:none;stroke:#263238;stroke-linejoin:round;stroke-miterlimit:10;" x1="469" y1="460.359" x2="96" y2="460.359"/>
	</g>
</g>
<g id="Character">
	<g>
		<path style="fill:#263238;stroke:#263238;stroke-linejoin:round;stroke-miterlimit:10;" d="M286.213,295.949
			c0,0-3.708,22.068-1.041,34.731c2.667,12.663,8.381,29.301,8.966,31.928c0.585,2.627-2.087,14.296-1.024,22.926
			c1.063,8.631,3.576,35.754,3.576,35.754s-0.456,6.763,0.572,8.409c1.028,1.646,1.335,3.32,1.411,5.244
			c0.076,1.924-1.292,3.905-0.032,5.301c1.259,1.396,2.269,2.561,2.326,4.004c0.057,1.443,0.114,2.886,0.151,3.849
			s-7.473,12.099-7.341,15.466c0.133,3.367,3.029,3.494,7.07,2.13c4.042-1.364,7.653-7.529,7.653-7.529l0.354,2.877
			c0,0,1.222,0.434,1.655-0.788c0.434-1.222,0.31-4.349,0.273-5.311c-0.038-0.962,0.849-2.924,0.725-6.051
			c-0.123-3.127-0.996-6.947-0.996-6.947s0.849-2.924,1.042-4.136c0.193-1.212-1.047-2.127-0.208-5.292
			c0.839-3.165,2.042-3.212,1.966-5.136c-0.076-1.924-0.161-4.089-0.708-5.754c-0.547-1.665,1.799-15.489,1.723-17.413
			c-0.076-1.924,0.197-7.235,0.197-7.235s2.555-8.532,2.422-11.9c-0.133-3.367-0.283-25.525-0.283-25.525l-0.322-8.178
			c0,0,0.714,12.017,2.173,18.464s4.112,24.892,5.716,28.924c1.604,4.032,3.907,13.578,4.781,17.398
			c0.873,3.82,2.129,11.239,2.129,11.239s-0.655,1.712-0.292,4.829c0.364,3.117,0.633,3.83,0.633,3.83s-1.551,3.434-1.273,4.386
			c0.278,0.953,0.402,4.08,0.43,4.801c0.028,0.722-1.551,3.434-2.833,7.58c-1.282,4.146-5.663,9.137-1.894,13.083
			c3.769,3.947,10.21-3.775,11.252-7.911c1.042-4.136,3.394-11.697,3.606-12.428c0.212-0.731,1.367-1.981,1.725-5.127
			c0.358-3.146,0.023-5.542,0.023-5.542s0.867-2.443,1.042-4.136c0.174-1.693,0.032-5.301,0.032-5.301s3.704-16.046,3.977-21.356
			c0.273-5.311-1.606-16.318-1.923-18.233c-0.316-1.915-0.015-6.504-0.794-7.918c-0.778-1.415-2.411-6.169-2.411-6.169
			s11.956-26.729,13.793-41.256c1.837-14.527,1.123-26.544,0.306-28.921c-0.816-2.377-1.623-4.513-1.623-4.513
			s-10.078,7.142-31.877,4.146c-21.799-2.996-30.275-4.108-32.468-4.744C288.378,295.864,286.213,295.949,286.213,295.949z"/>
		<path style="fill:#263238;stroke:#263238;stroke-linejoin:round;stroke-miterlimit:10;" d="M306.67,149.015
			c0,0-5.768,0.479-11.288,7.237c-5.52,6.759-8.189,15.669-6.582,18.122c1.606,2.453,3.533,6.654,3.572,7.658
			c0.04,1.005-7.471,8.345-5.332,11.532c2.138,3.186,2.72,5.176,0.971,5.497c-1.749,0.32-4.664,2.951-4.092,4.69
			c0.572,1.739,3.645,3.127,2.469,5.186c-1.177,2.059-2.192,1.847-2.093,4.359c0.099,2.512,2.571,4.448,1.264,4.867
			c-1.307,0.418-3.799,1.02-2.977,2.748c0.823,1.729,2.67,3.92,2.67,3.92s9.69,9.682,28.87,11.191
			c19.18,1.509,36.865-15.792,39.529-18.413c2.664-2.621,3.137-3.394,3.078-4.901c-0.059-1.507-1.133-3.226-1.705-4.965
			c-0.572-1.739,0.044-5.285,0.014-6.039c-0.03-0.754-1.867-2.694-3.163-3.649s-1.656-3.709-1.252-6.24
			c0.403-2.532-2.178-4.191-3.212-4.905c-1.034-0.714-1.877-2.945-1.212-5.236c0.665-2.29-2.439-4.433-3.734-5.388
			c-1.296-0.955-1.636-3.206-1.232-5.738c0.404-2.532-3.07-7.678-4.917-9.87c-1.847-2.192-4.395-9.387-14.059-12.026
			C312.59,146.014,306.67,149.015,306.67,149.015z"/>
		<g>
			<path style="fill:#FFFFFF;stroke:#263238;stroke-linejoin:round;stroke-miterlimit:10;" d="M318.924,202.876
				c0,0-10.837,6.208-18.208,8.667c-7.371,2.458-7.689,18.853-7.528,22.941c0.161,4.089-3.895,29.544-1.358,32.816
				c2.538,3.273,25.638,2.604,33.566,2.051c7.928-0.553,13.536,1.153,18.752-0.979c5.216-2.133,5.871-3.845,5.767-6.491
				c-0.104-2.646,0.443-31.576,0.225-37.108c-0.218-5.532-1.733-13.422-3.724-15.03c-1.991-1.608-6.136-2.89-12.225-4.577
				C328.102,203.478,318.924,202.876,318.924,202.876z"/>
			<g>
				<path style="fill:#FFFFFF;stroke:#263238;stroke-linejoin:round;stroke-miterlimit:10;" d="M289.544,276.545
					c0,0-3.996,20.875-3.92,22.799c0.076,1.924-0.32,4.108-0.32,4.108s8.773,2.545,12.4,2.884
					c3.627,0.339,11.583,0.507,14.989,1.337c3.405,0.829,17.587,0.03,22.6-1.131c5.013-1.161,8.583-2.265,11.441-3.101
					c2.858-0.835,6.881-2.68,6.881-2.68l2.811-2.038l-5.904-21.449c0,0-10.295,1.61-20.379,2.489
					c-10.083,0.879-29.208-1.5-31.873-1.876C295.605,277.511,289.544,276.545,289.544,276.545z"/>
				<g>
					
						<line style="fill:none;stroke:#263238;stroke-linejoin:round;stroke-miterlimit:10;" x1="298.569" y1="293.397" x2="298.282" y2="296.118"/>
					
						<line style="fill:none;stroke:#263238;stroke-linejoin:round;stroke-miterlimit:10;" x1="299.826" y1="281.474" x2="298.816" y2="291.05"/>
					
						<line style="fill:none;stroke:#263238;stroke-linejoin:round;stroke-miterlimit:10;" x1="298.259" y1="282.066" x2="295.924" y2="290.112"/>
					
						<line style="fill:none;stroke:#263238;stroke-linejoin:round;stroke-miterlimit:10;" x1="331.149" y1="282.361" x2="330.803" y2="293.776"/>
					
						<line style="fill:none;stroke:#263238;stroke-linejoin:round;stroke-miterlimit:10;" x1="339.19" y1="294.02" x2="339.685" y2="297.138"/>
					
						<line style="fill:none;stroke:#263238;stroke-linejoin:round;stroke-miterlimit:10;" x1="337.217" y1="281.592" x2="338.685" y2="290.841"/>
				</g>
				<path style="fill:#FFFFFF;stroke:#263238;stroke-linejoin:round;stroke-miterlimit:10;" d="M349.915,261.882
					c-0.104-2.646,0.443-31.576,0.225-37.108c-0.11-2.796-0.375-1.683-1.041-4.568c-3.498,3.288-11.25,8.704-26.5,10.469
					c-13.912,1.609-25.322-3.646-28.88-5.847c-0.58,4.091-0.598,7.949-0.531,9.658c0.161,4.089-3.895,29.544-1.358,32.816
					c2.538,3.273,25.638,2.604,33.566,2.051c7.928-0.553,13.536,1.153,18.752-0.979C349.364,266.24,350.02,264.527,349.915,261.882z
					"/>
				<g>
					<path style="fill:none;stroke:#263238;stroke-linejoin:round;stroke-miterlimit:10;" d="M323.953,261.054
						c2.492-0.221,5.041-0.573,7.577-1.099"/>
					<path style="fill:none;stroke:#263238;stroke-linejoin:round;stroke-miterlimit:10;" d="M299.483,259.772
						c0,0,9.798,2.079,21.557,1.484"/>
					<path style="fill:none;stroke:#263238;stroke-linejoin:round;stroke-miterlimit:10;" d="M302.487,256.522
						c0,0,3.326,4.928,9.57,4.441"/>
					<path style="fill:none;stroke:#263238;stroke-linejoin:round;stroke-miterlimit:10;" d="M313.646,258.492
						c0,0,2.241,1.839,4.193,2.485"/>
					<path style="fill:none;stroke:#263238;stroke-linejoin:round;stroke-miterlimit:10;" d="M327.211,260.367
						c0,0,2.33-2.019,4.352-5.712"/>
				</g>
				<path style="fill:#263238;stroke:#263238;stroke-linejoin:round;stroke-miterlimit:10;" d="M289.849,265.934
					c0,0,21.828,3.718,32.652,3.291c10.824-0.426,27.231-5.891,27.231-5.891l0.79,13.941c0,0-9.672,5.199-29.896,5.514
					s-31.69-3.329-31.69-3.329L289.849,265.934z"/>
			</g>
		</g>
		<path style="fill:#FFFFFF;stroke:#263238;stroke-miterlimit:10;" d="M310.843,217.89c0,0-0.237-6.013-0.455-11.546
			c-0.218-5.532-1.034-7.909-1.034-7.909s3.905,1.292,7.763,1.381c3.858,0.089,9.644-5.921,10.087-6.902
			c0.443-0.981,1.098-2.693,1.098-2.693s0.61,9.371,1.474,12.951c0.864,3.579,1.43,5.725,1.43,5.725"/>
		<path style="fill:#263238;stroke:#263238;stroke-linejoin:round;stroke-miterlimit:10;" d="M314.375,208.005
			c5.863-3.226,10.917-10.698,10.917-10.698l0.338-2.526c-2.083,2.102-5.777,5.099-8.512,5.036
			c-3.858-0.089-7.763-1.381-7.763-1.381s0.816,2.377,1.034,7.909c0.049,1.245,0.099,2.511,0.147,3.731
			C311.483,209.578,312.725,208.913,314.375,208.005z"/>
		<g>
			<g>
				<path style="fill:#FFFFFF;stroke:#263238;stroke-linejoin:round;stroke-miterlimit:10;" d="M331.978,173.454l-3.839,0.392
					c0,0-0.084-0.548-0.305-1.44c-0.168-0.155-0.336-0.31-0.493-0.455c-0.75-0.693-0.981-0.443-2.193-0.636
					c-1.212-0.193-1.769-2.098-1.845-4.023c-0.076-1.924-2.5-2.311-5.222-4.131c-2.229-1.491-3.23-4.642-3.519-5.735
					c-0.941-0.12-1.851-0.143-2.701-0.102c-0.282,1.31-0.942,3.78-2.217,5.688c-1.82,2.722-3.513,2.547-3.937,4.009
					c-0.424,1.462-1.561,3.193-2.513,3.472c-0.953,0.278-3.358,0.373-3.311,1.576c0.047,1.203-0.599,3.155-1.301,3.665
					c-0.152,0.11-0.34,0.247-0.537,0.389c0.437,2.71,0.986,4.902,1.005,5.374c0.038,0.962,0.284,7.216,3.072,10.72
					c2.788,3.504,8.152,11.242,14.406,10.996c6.254-0.246,11.214-8.873,12.091-11.076c0.877-2.203,1.112-8.475,1.112-8.475
					s1.858-1.76,2.956-4.453C333.785,176.514,331.978,173.454,331.978,173.454z"/>
				<path style="fill:#FFFFFF;stroke:#263238;stroke-linejoin:round;stroke-miterlimit:10;" d="M298.219,172.615
					c-0.066-1.684,1.504-4.636,2.225-4.665c0.722-0.028,3.07-1.566,3.504-2.788c0.434-1.222,0.146-2.415,1.329-2.943
					c1.184-0.528,1.117-2.212,1.117-2.212s-3.235,3.5-5.121,4.538c-1.886,1.038-2.579,1.788-3.504,2.788
					c-0.378,1.922-0.294,4.27-0.042,6.503C298.019,173.62,298.244,173.25,298.219,172.615z"/>
			</g>
			<path style="fill:none;stroke:#263238;stroke-linejoin:round;stroke-miterlimit:10;" d="M311.697,190.634
				c0,0,1.528,2.108,4.349,0.311"/>
			<path style="fill:none;stroke:#263238;stroke-linejoin:round;stroke-miterlimit:10;" d="M311.839,194.242
				c0,0,4.886,1.735,6.668-1.949"/>
			<path style="fill:#263238;" d="M306.763,181.701c0.135,0.988-0.182,1.847-0.708,1.919c-0.527,0.072-1.064-0.67-1.199-1.658
				c-0.136-0.988,0.182-1.847,0.708-1.919C306.09,179.971,306.627,180.713,306.763,181.701z"/>
			<path style="fill:#263238;" d="M318.747,180.145c0.135,0.988-0.182,1.847-0.708,1.919s-1.064-0.67-1.199-1.658
				c-0.136-0.988,0.182-1.847,0.708-1.919C318.074,178.415,318.611,179.157,318.747,180.145z"/>
			<path style="fill:none;stroke:#263238;stroke-linejoin:round;stroke-miterlimit:10;" d="M301.564,178.024
				c0,0,1.117-2.212,4.985-1.883"/>
			<path style="fill:none;stroke:#263238;stroke-linejoin:round;stroke-miterlimit:10;" d="M314.948,175.329
				c0,0,3.782-1.835,6.763,0.456"/>
			<path style="fill:none;stroke:#263238;stroke-linejoin:round;stroke-miterlimit:10;" d="M307.289,176.594
				c0,0,3.259,3.244,3.392,6.612"/>
		</g>
		<path style="fill:none;stroke:#808080;stroke-linejoin:round;stroke-miterlimit:10;" d="M321.418,309.017
			c0,0-3.947,3.769-4.79,12.957c-0.843,9.188-0.835,27.737-0.835,27.737s0.597,6.109,0.87,9.843"/>
		<path style="fill:none;stroke:#808080;stroke-linejoin:round;stroke-miterlimit:10;" d="M317.351,314.352
			c0,0-2.642-1.893-3.552-3.283"/>
		<g>
			<path style="fill:#595959;stroke:#263238;stroke-linejoin:round;stroke-miterlimit:10;" d="M325.867,403.793
				c1.262,4.391,2.542,9.737,3.143,12.368c0.873,3.82,2.129,11.239,2.129,11.239s-0.655,1.712-0.292,4.83
				c0.364,3.117,0.633,3.829,0.633,3.829s-1.551,3.434-1.273,4.386c0.278,0.953,0.402,4.08,0.43,4.801
				c0.028,0.722-1.551,3.434-2.833,7.58c-1.282,4.146-5.663,9.136-1.894,13.083c3.769,3.947,10.21-3.775,11.252-7.911
				c1.042-4.136,3.394-11.697,3.606-12.428c0.212-0.731,1.367-1.981,1.725-5.127c0.358-3.146,0.023-5.542,0.023-5.542
				s0.867-2.443,1.042-4.136c0.174-1.693,0.032-5.301,0.032-5.301s3.704-16.046,3.977-21.356c0.052-1.016,0.025-2.242-0.054-3.571
				C338.585,404.992,330.141,404.498,325.867,403.793z"/>
			<path style="fill:#595959;stroke:#263238;stroke-linejoin:round;stroke-miterlimit:10;" d="M308.501,458.163l0.354,2.877
				c0,0,1.222,0.434,1.655-0.788c0.434-1.222,0.311-4.349,0.273-5.311c-0.038-0.962,0.849-2.924,0.725-6.051
				c-0.123-3.127-0.996-6.947-0.996-6.947s0.849-2.924,1.042-4.136c0.193-1.212-1.047-2.127-0.208-5.292
				c0.839-3.165,2.042-3.212,1.966-5.136c-0.076-1.924-0.161-4.089-0.708-5.754c-0.547-1.665,1.799-15.489,1.723-17.413
				c-0.024-0.602-0.013-1.535,0.012-2.534c-6.389,2.435-14.412,1.389-19.497,0.269c0.95,9.643,1.849,19.341,1.849,19.341
				s-0.456,6.763,0.572,8.409c1.028,1.646,1.335,3.32,1.411,5.244c0.076,1.924-1.292,3.905-0.032,5.301
				c1.26,1.396,2.269,2.561,2.326,4.004c0.057,1.443,0.114,2.886,0.152,3.849s-7.473,12.099-7.341,15.466
				c0.133,3.367,3.029,3.494,7.07,2.131C304.89,464.328,308.501,458.163,308.501,458.163z"/>
		</g>
		<path style="fill:#92E3A9;stroke:#263238;stroke-linejoin:round;stroke-miterlimit:10;" d="M310.195,207.556
			c0,0-5.271,12.975-6.797,23.154c-1.526,10.178-3.962,27.86-5.032,31.275c-1.07,3.415-3.805,7.377-7.155,26.299
			c-3.35,18.922-1.035,40.994-1.035,40.994s-0.924,1-5.042,0.439c-4.118-0.561-8.282-2.324-8.282-2.324s1.572-21.261,3.433-29.044
			c1.862-7.782,6.193-26.262,6.193-26.262l-0.11-8.909c0,0-2.168,6.108-4.875,10.792c-2.706,4.684-5.526,6.481-10.097,6.661
			c-4.57,0.18-7.797-8.365-4.714-15.714c3.083-7.348,6.081-16.862,7.807-21.989c1.725-5.127,7.104-21.479,11.07-24.767
			C289.524,214.875,308.252,207.151,310.195,207.556z"/>
		<path style="fill:#92E3A9;stroke:#263238;stroke-linejoin:round;stroke-miterlimit:10;" d="M331.988,204.289
			c0,0-1.019,29.189,0.591,39.485c1.61,10.296,7.182,23.326,8.843,28.801c1.661,5.475,3.641,25.151,5.137,32.561
			c1.496,7.409,0.995,25.256,0.995,25.256s3.848-0.151,6.263-0.006c2.415,0.146,12.087-5.053,12.087-5.053
			s-1.252-13.441-3.786-22.737c-2.534-9.295-7.4-28.858-8.052-33.169c-0.652-4.311-1.803-9.083-1.86-10.526
			c-0.057-1.443,2.017-9.956,2.017-9.956s7.363-21.008,6.617-27.724c-0.746-6.716-9.326-10.473-13.5-12.477
			C343.167,206.74,331.988,204.289,331.988,204.289z"/>
		<g>
			<path style="fill:#FFFFFF;stroke:#263238;stroke-linejoin:round;stroke-miterlimit:10;" d="M352.917,246.346l5.72,22.902
				c0,0-1.311,3.424-0.311,4.349c1,0.924,1.047,2.127,1.047,2.127s-0.829,3.405,0.199,5.051c1.028,1.646,5.732,35.428,5.732,35.428
				s-3.937,4.01-3.871,5.693c0.066,1.684-0.339,3.627-0.773,4.849c-0.434,1.222-2.023,3.693-1.292,3.905
				c0.731,0.212,3.57-1.104,3.773-2.076c0.203-0.972,0.877-2.203,0.877-2.203l0.655-1.712c0,0,0.458,5.523,0.265,6.735
				s-0.386,2.424-1.061,3.655c-0.674,1.231-2.282,3.222-1.06,3.655c1.222,0.434,4.881-4.529,4.881-4.529s1.434-0.297,3.08-1.326
				c1.646-1.028,2.956-4.453,3.15-5.665c0.193-1.212,0.004-6.023-0.025-6.744c-0.028-0.722-0.968-6.225-0.968-6.225
				s2.844-25.648,2.56-32.864c-0.284-7.216-1.252-13.441-1.252-13.441l-0.94-5.504c0,0-2.175-30.75-5.567-37.362
				c-3.392-6.612-8.892-11.695-13.269-12.727"/>
			<path style="fill:#92E3A9;stroke:#263238;stroke-linejoin:round;stroke-miterlimit:10;" d="M352.513,245.609l6.124,23.638
				c0,0-1.311,3.424-0.311,4.349c1,0.924,1.047,2.127,1.047,2.127s-0.829,3.405,0.199,5.051c0.143,0.228,0.356,1.076,0.617,2.364
				c2.872-1.867,9.449-5.122,14.419,0.176c0.294,0.313,0.589,0.521,0.885,0.638c0.026-1.013,0.029-1.896,0.001-2.6
				c-0.284-7.216-1.252-13.441-1.252-13.441l-0.94-5.504c0,0-2.175-30.75-5.567-37.362c-3.392-6.612-10.08-11.649-14.457-12.681"/>
		</g>
		<g>
			<polygon style="fill:#263238;stroke:#263238;stroke-linejoin:round;stroke-miterlimit:10;" points="276.485,237.294 
				284.804,262.512 298.366,261.985 291.437,235.39 			"/>
			<path style="fill:#FFFFFF;stroke:#263238;stroke-linejoin:round;stroke-miterlimit:10;" d="M285.07,267.228
				c0.371-0.276,0.669-0.609,0.82-1.002c0.511-1.335,1.382-3.06,1.382-3.06s4.247-1.858,4.795-2.255
				c0.548-0.397,4.262-1.483,4.788-2.443s0.504-1.523-1.35-0.886s-7.608,2.366-7.608,2.366s0.923-0.412,1.658-0.817
				c0.735-0.405,5.688-3.417,6.244-3.627c0.555-0.21,0.698-1.342,0.294-2.078s-0.735,0.405-2.401,1.034
				c-1.666,0.629-7.788,2.561-7.788,2.561s2.739-1.986,3.287-2.383c0.548-0.397,5.53-2.66,5.53-2.66s1.471-0.809,1.434-1.747
				c-0.037-0.938-0.607-1.103-1.162-0.893c-0.555,0.21-4.299,0.545-5.589,1.159c-1.291,0.614-5.523,2.847-5.523,2.847l1.901-4.207
				c0,0,5.118-3.583,5.861-3.8c0.743-0.217,2.206-1.214,1.989-1.957c-0.217-0.743-1.725-0.871-1.725-0.871s-6.49,2.134-7.751,3.499
				c-1.261,1.365-3.776,4.281-3.776,4.281s-1.041-2.589-1.085-3.714c-0.044-1.125-0.126-3.188-0.92-4.284s-0.967-0.713-0.967-0.713
				s0.049,6.009-0.304,6.586c-0.353,0.577,2.649,10.039,2.649,10.039l1.28,3.894c0,0-5.604,0.784-7.487,0.671
				c-1.883-0.114-4.376,3.365-4.768,7.701c-0.393,4.336,3.304,7.571,6.679,7.438c3.376-0.133,5.898-2.862,7.144-4.602
				c1.246-1.74,1.886-4.582,1.886-4.582L285.07,267.228z"/>
		</g>
	</g>
</g>
</svg>
